<svg xmlns="http://www.w3.org/2000/svg" xmlns:xlink="http://www.w3.org/1999/xlink" width="14" height="14"><defs><path id="a" d="M0 0h14v14H0z"/></defs><g fill="none" fill-rule="evenodd"><mask id="b" fill="#fff"><use xlink:href="#a"/></mask><path fill="#276cf2" d="M10.815 12.469H8.259L5.813 8.18 9.61 1.53h2.555L8.369 8.18l2.446 4.288zm-8.98-3.307l1.898-3.125L2.31 3.53h2.409l1.423 2.507-1.898 3.125H1.835zM12.25 0H1.75A1.75 1.75 0 0 0 0 1.75v10.5C0 13.217.784 14 1.75 14h10.5A1.75 1.75 0 0 0 14 12.25V1.75A1.75 1.75 0 0 0 12.25 0z" mask="url(#b)"/></g></svg>