<svg xmlns="http://www.w3.org/2000/svg" xmlns:xlink="http://www.w3.org/1999/xlink" width="166" height="30" viewBox="0 0 166 30">
    <defs>
        <path id="a" d="M0 0h165.728v29.295H0z"/>
    </defs>
    <g fill="none" fill-rule="evenodd">
        <mask id="b" fill="#fff">
            <use xlink:href="#a"/>
        </mask>
        <path fill="#656B6F" d="M6.05 16.543c.33 1.788.61 3.595.61 5.187 0 3.417-1.158 5.87-2.817 5.87-1.342 0-1.342-1.436-1.341-2.4-.001-2.927 1.513-6.008 3.546-8.657h.003zm-.133-.673c-.36.448-.71.91-1.044 1.379H4.87c-1.636-1.586-2.949-4.995-2.95-7.78C1.921 2.556 6.555.6 6.793.6c.341 0 .236.08.236.55 0 .703-2 3.99-2 8.607 0 1.621.46 3.816.892 6.093l-.004.02zm12.508-4.28c-.925-.055-1.76-.236-1.76-.816 0-.209.158-.365.42-.365.616 0 1.06.521 1.341 1.177v.003zm6.11-3.03c-.017-1.93-.163-7.36 1.319-7.36.578 0 .657.626.657 1.722 0 2.315-.859 4.215-1.97 5.641l-.006-.003zm25.32 6.319c.15.555.245 1.15.245 1.738 0 .495-.263.86-.553.86-.316 0-.421-.312-.421-.833 0-.517.271-1.128.715-1.765h.015zM61.82 11.37a3.59 3.59 0 0 1-.74.082c-.711 0-1.133-.288-1.133-.758 0-.208.238-.47.501-.468.568 0 1.042.496 1.377 1.135l-.005.009zm22.547 4.406l.008-.017c-.457-1.106-1.26-2.17-2.892-2.17-.447 0-.684.392-.684.863 0 .86 1.368 1.407 2.633 1.407.264 0 .581-.032.935-.083zm10.118.772l-.007-.002c-2.031 2.648-3.543 5.727-3.543 8.652 0 .966 0 2.4 1.343 2.4 1.659 0 2.816-2.452 2.816-5.869 0-1.59-.28-3.395-.61-5.18zm12.37-4.96l.003-.006c-.281-.655-.725-1.174-1.338-1.174-.264 0-.422.156-.422.365 0 .58.833.761 1.757.815zm6.114-3.02c1.115-1.426 1.976-3.329 1.976-5.647 0-1.096-.079-1.722-.658-1.722-1.484 0-1.335 5.446-1.318 7.37zm25.319 6.3h-.006c-.448.642-.722 1.255-.722 1.775 0 .521.104.833.42.833.291 0 .554-.365.554-.86 0-.591-.096-1.189-.246-1.748zm-45.35 2.906c-.652-.492-1.26-1.338-2.188-1.966-.782-.532-2.845.044-4.633.366l-.003.002c-.157 1.022-.512 2.03-.867 2.03-.23 0-.333-.807-.622-1.747l-.018-.012c-.799.142-1.476.247-1.885.247-1.239 0-4.083-.548-4.083-2.4 0-1.043 1.185-1.46 2.318-1.46 1.29 0 3.343.912 3.844 1.904.132-1.774-1.16-2.74-1.16-3.026 0-.287 1.396-.809 1.528-.809.553 0 1.027 2.505 1.027 4.279 0 .084-.002.17-.007.259l.002.002c1.416-.28 2.94-.578 3.926-.444-.946-1.33-1.656-3.156-1.656-5.687C88.46 2.895 94.909 0 95.909 0c.448 0 .554.104.554.365 0 .574-.843 1.148-.843 5.53 0 3.032.346 5.623.636 7.815 2.57-2.65 5.3-4.475 6.972-4.475.053 0 .079.104.079.208 0 .183-1.684.966-1.684 3.47 0 1.956 1.21 3.73 2.79 3.73 1.79 0 2.817-1.878 2.817-3.261 0-.273-.033-.59-.1-.914l-.002-.002c-2.5-.054-3.294-.989-3.294-1.875 0-.6.605-1.305 1.395-1.305.947 0 2.281.717 2.778 2.325l.487-.003c.541 0 1.486-.382 2.49-1.113l.002-.008a132.855 132.855 0 0 1-.043-2.922c0-3.73 1.263-7.121 3.422-7.121 1.106 0 1.684.912 1.684 2.086 0 2.507-1.261 5.153-3.075 7.083l-.007.019c-.018 3.187-.118 4.924.345 4.924.553 0 2.29-5.556 4.501-5.556 2.318 0 .422 7.095 1.396 7.095 1.184 0 3.897-7.2 5.712-7.2 2.528 0 .79 6.026 1.66 6.026.895 0 2.238-6.026 4.58-6.026 2.976 0 .185 7.67 1.712 7.67 1.158 0 4.107-7.956 4.764-7.956.528 0-.263.626 1.766 3.495.085.12.164.244.235.37l.01.002c2.099-1.917 4.895-3.58 6.94-3.58.37 0 .58.052.58.313 0 .6-1.816 1.095-1.816 4.07 0 1.825 1.264 3.312 2.685 3.312 1.817 0 2.764-1.8 2.764-3.182 0-.352-.075-.796-.214-1.239l-.01-.005a4.437 4.437 0 0 1-1.197.174c-1.553 0-2.212-1.096-2.212-1.904 0-.6.58-1.175 1.343-1.175 1.053 0 2.142.604 2.75 1.78h.005c1.645-.704 3.153-2.066 4.169-2.066 2.5 0 1.08 5.373 1.659 5.373.631 0 2.554-5.582 4.554-5.582 1.58 0 1.448 2.088 1.448 3.026 0 2.14-.5 5.035.29 5.035.552 0 1.947-2.27 2.132-2.27.185 0 .211.052.21.287.001.443-2.264 3.809-3.5 3.809-1.791 0-1.634-2.713-1.634-3.575 0-.677.211-4.173-.315-4.173-.394 0-1.422 2.27-2.37 3.939-.974 1.696-1.448 3.6-2.42 3.6-1.291 0-1.028-1.774-1.028-3.495 0-2.296.29-4.513-.447-4.513-.341 0-1.254.794-2.452 1.357l-.003.004c.122.424.19.902.19 1.43 0 1.46-.764 5.217-4.318 5.217-2.527 0-4.501-1.957-4.501-4.513 0-2.374 1.343-3.104 2.105-3.938-1.309.215-3.454 1.54-5.111 3.059l-.005.015c.4 1.013.43 2.023.43 2.378 0 1.695-1.079 2.868-2.184 2.868-.737 0-1.475-.47-1.475-1.408 0-.737.526-1.725 1.362-2.754v-.009c-.422-1.133-1.018-1.958-1.335-1.958-.66 0-2.58 6.13-5.002 6.13-2.66 0-.817-7.46-1.712-7.46-.868-.001-3.423 7.46-4.897 7.46-2.08 0-.21-7.33-1.132-7.33-1.185 0-3.923 7.33-5.765 7.33-2.607 0-.659-7.227-1.737-7.226-.58 0-1.528 1.957-2.423 3.913-.764 1.565-1.211 3.208-2.027 3.208-.764 0-.922-.287-.922-2.713 0-.77-.05-2.465-.096-4.215l-.004-.004c-.902.583-1.862.981-2.824 1.13l-.004.004c.02.186.032.38.032.58.001 1.748-.71 5.428-4.343 5.428-2.738 0-4.24-2.062-4.24-4.697 0-1.408.685-2.348 1.343-3.13-1.438.856-3.079 2.176-4.613 3.776l-.005.022c.168 1.298.3 2.446.3 3.454 0 7.695-3.396 11.452-5.213 11.452-1.132 0-1.737-1.487-1.737-3 0-2.674 1.35-5.736 3.241-8.52zm.366-.524c.33-.465.676-.92 1.031-1.363l.02-.041c-.433-2.276-.892-4.47-.892-6.091 0-4.617 2.026-7.904 2.026-8.608 0-.47.08-.548-.263-.548-.237 0-4.87 1.956-4.87 8.87 0 2.785 1.309 6.197 2.948 7.78zm56.95-5.88l.004-.01c-.335-.638-.809-1.134-1.377-1.134-.264-.001-.5.26-.5.468 0 .47.447.758 1.131.758.249 0 .496-.03.742-.082zm-137.721-.78c-.659.782-1.37 1.722-1.37 3.13 0 2.635 1.527 4.696 4.265 4.697 3.634 0 4.345-3.68 4.345-5.427 0-.204-.011-.398-.033-.585.963-.147 1.926-.547 2.83-1.13l.003.003c.044 1.751.095 3.447.095 4.216-.025 2.426.158 2.713.922 2.713.816 0 1.264-1.643 2.027-3.208.895-1.956 1.843-3.914 2.423-3.914 1.08 0-.869 7.226 1.737 7.226 1.843 0 4.58-7.33 5.766-7.33.921 0-.948 7.33 1.106 7.33 1.5 0 4.053-7.46 4.921-7.46.896 0-.947 7.46 1.713 7.46 2.396 0 4.344-6.13 5.001-6.13.318 0 .91.821 1.333 1.947l-.004.029c-.832 1.027-1.355 2.01-1.355 2.746 0 .939.737 1.408 1.475 1.408 1.105 0 2.186-1.173 2.186-2.868 0-.356-.032-1.368-.433-2.382l.003-.01c1.653-1.52 3.794-2.845 5.09-3.06-.739.834-2.082 1.564-2.082 3.938 0 2.556 1.976 4.513 4.503 4.513 3.554 0 4.317-3.757 4.318-5.217 0-.532-.07-1.012-.193-1.44l-.004.007c1.207-.563 2.12-1.358 2.46-1.358.738 0 .448 2.217.448 4.513 0 1.721-.263 3.495 1.027 3.495.974 0 1.447-1.904 2.422-3.6.948-1.67 1.975-3.939 2.37-3.939.525 0 .315 3.496.315 4.173 0 .862-.157 3.575 1.633 3.575 1.21 0 3.475-3.366 3.475-3.81 0-.233 0-.286-.184-.286-.185 0-1.58 2.27-2.133 2.27-.79 0-.29-2.896-.29-5.035 0-.938.132-3.026-1.447-3.026-2.002 0-3.95 5.582-4.554 5.582-.58 0 .841-5.373-1.66-5.373-1.017 0-2.529 1.368-4.178 2.071l.009.003c-.608-1.181-1.699-1.788-2.754-1.788-.763 0-1.344.575-1.344 1.175 0 .808.659 1.904 2.186 1.904.42 0 .828-.067 1.218-.177l.015.006c.14.444.214.889.214 1.24 0 1.383-.948 3.183-2.763 3.183-1.422 0-2.685-1.488-2.685-3.313 0-2.974 1.815-3.47 1.816-4.07 0-.26-.21-.313-.605-.313-2.032 0-4.823 1.664-6.918 3.58h-.008a4.107 4.107 0 0 0-.236-.37c-2.027-2.87-1.237-3.496-1.764-3.496-.658 0-3.607 7.956-4.765 7.956-1.527 0 1.264-7.67-1.71-7.67-2.344 0-3.686 6.026-4.582 6.026-.869 0 .869-6.026-1.659-6.026-1.817 0-4.529 7.2-5.712 7.2-1.001 0 .92-7.095-1.396-7.095-2.21 0-3.95 5.556-4.503 5.556-.461 0-.362-1.736-.344-4.92l.008-.023c1.813-1.93 3.075-4.576 3.075-7.083 0-1.174-.578-2.086-1.685-2.086-2.158 0-3.422 3.39-3.422 7.121 0 .813.018 1.852.043 2.918l-.006.014c-1.002.73-1.946 1.11-2.486 1.11-.15 0-.314.003-.488.004h.002c-.498-1.607-1.837-2.325-2.804-2.325-.765 0-1.37.705-1.37 1.306 0 .884.793 1.82 3.292 1.874l.005.006c.067.321.099.638.099.91 0 1.383-1.025 3.262-2.843 3.262-1.58 0-2.764-1.775-2.764-3.732 0-2.503 1.685-3.286 1.685-3.468 0-.105-.026-.21-.08-.21-1.671 0-4.397 1.824-6.966 4.472l-.006-.002c-.289-2.19-.636-4.78-.636-7.809 0-4.382.816-4.956.816-5.53 0-.26-.078-.365-.526-.365-1 0-7.478 2.895-7.478 9.313 0 4.936 2.742 7.129 4.507 8.46v.001c-1.892 2.785-3.242 5.846-3.242 8.521 0 1.513.605 3 1.737 3 1.79 0 5.213-3.757 5.213-11.452 0-1.011-.132-2.163-.3-3.465v-.005c1.535-1.601 3.178-2.925 4.618-3.782z" mask="url(#b)"/>
    </g>
</svg>
