<svg xmlns="http://www.w3.org/2000/svg" xmlns:xlink="http://www.w3.org/1999/xlink" width="166" height="39" viewBox="0 0 166 39">
    <defs>
        <path id="a" d="M1.027.784h19.354v26.584H1.027z"/>
        <path id="c" d="M0 .593h53.582v37.67H0z"/>
    </defs>
    <g fill="none" fill-rule="evenodd">
        <path fill="#656B6F" d="M69.525 20.767l3.544 4.64c.858 1.121 1.678 2.275 2.582 3.358.945 1.135.639 2.6-.094 3.14-1.05.776-2.496.557-3.367-.59-1.824-2.4-3.627-4.816-5.44-7.224-.097-.13-.206-.25-.397-.477-.626.586-1.182 1.217-1.842 1.7-1.093.8-1.547 1.793-1.344 3.14.084.558.02 1.14.013 1.71-.017 1.22-.882 2.123-2.071 2.169-1.294.05-2.288-.793-2.391-2.032-.01-.108-.004-.218-.004-.326 0-7.832-.003-15.663.003-23.495 0-1.176.7-2.1 1.692-2.287 1.17-.22 2.18.263 2.606 1.303.128.312.159.683.16 1.027.009 4.569.006 9.137.006 13.705v1.187c.369-.313.592-.478.789-.672 2.598-2.55 5.19-5.104 7.79-7.652.31-.304.628-.609.982-.853.885-.613 2.013-.507 2.67.21.65.709.728 1.91.068 2.695-.556.662-1.218 1.237-1.853 1.83-1.343 1.255-2.7 2.5-4.102 3.794M140.938 20.771c.043-2.411-1.514-4.626-3.58-5.258-3.064-.938-5.99.968-6.75 4.369-.154.688-.059.966.74.955 2.929-.043 5.857-.016 8.785-.02.26 0 .522-.029.805-.046zm-10.282 2.907c-.145 1.991 1.52 4.258 3.643 4.942a7.526 7.526 0 0 0 2.146.35c2.278.043 4.557.01 6.835.017 1.273.003 1.999.678 1.995 1.832-.004 1.103-.737 1.82-1.947 1.812-2.79-.018-5.594.083-8.367-.149-4.32-.358-7.64-3.283-8.579-7.478-.994-4.44-.054-8.415 3.6-11.35 2.96-2.378 6.388-2.634 9.816-1.196 3.302 1.385 4.957 4.14 5.477 7.622.068.455.14.916.134 1.374-.018 1.383-.87 2.22-2.25 2.222-3.878.005-7.758.002-11.636.002h-.867z"/>
        <g transform="translate(144.987 11.039)">
            <mask id="b" fill="#fff">
                <use xlink:href="#a"/>
            </mask>
            <path fill="#656B6F" d="M10.949 16.009c.202-.446.348-.721.458-1.01 1.534-4.082 3.061-8.166 4.595-12.247.367-.976.853-1.853 2.052-1.93 1.803-.115 2.827 1.487 2.08 3.32-1.256 3.087-2.558 6.155-3.842 9.23-1.264 3.025-2.522 6.051-3.799 9.071-.231.548-.52 1.074-.814 1.592-1.27 2.248-3.133 3.465-5.782 3.322-.73-.039-1.469.03-2.194-.05-1.157-.125-1.926-.989-1.86-1.98.08-1.188.836-1.83 2.135-1.816.515.006 1.031.017 1.546.016 1.607-.006 2.678-.764 3.136-2.3.087-.289-.02-.685-.152-.98C6.177 14.995 3.826 9.752 1.483 4.505a7.246 7.246 0 0 1-.374-.986 2.123 2.123 0 0 1 1.07-2.48c.947-.48 2.088-.273 2.72.54.246.316.432.69.584 1.063 1.695 4.166 3.377 8.336 5.065 12.504.098.24.219.472.4.863" mask="url(#b)"/>
        </g>
        <path fill="#656B6F" d="M104.887 24.43c0 1.876.015 3.752-.004 5.628-.015 1.406-.871 2.274-2.197 2.277-1.34.002-2.27-.93-2.275-2.323-.01-3.209.012-6.416-.01-9.625-.016-2.314-1.422-4.09-3.547-4.556-2.48-.546-4.784.927-5.317 3.429a8.41 8.41 0 0 0-.175 1.694c-.018 2.964-.007 5.927-.01 8.891 0 1.564-.842 2.492-2.255 2.49-1.407-.002-2.21-.914-2.21-2.522-.002-3.453.036-6.907-.01-10.36-.058-4.43 3.346-7.434 7.431-7.73 1.962-.144 3.96-.225 5.843.62 3.001 1.349 4.692 3.589 4.732 6.949.022 1.712.004 3.426.004 5.139M115.944 26.977c.79-2.004 1.498-3.787 2.198-5.572.996-2.549 1.98-5.102 2.983-7.648.356-.906.809-1.753 1.916-1.89 1.842-.229 3.04 1.366 2.3 3.114-1.182 2.796-2.415 5.57-3.629 8.353-1.05 2.41-2.086 4.825-3.158 7.226-.458 1.028-1.1 1.883-2.37 1.954-1.466.083-2.282-.388-2.932-1.82-.906-2-1.768-4.019-2.647-6.03-1.346-3.08-2.702-6.155-4.022-9.246-.216-.508-.382-1.091-.367-1.633.029-.965.885-1.789 1.81-1.92 1.137-.161 2.03.291 2.489 1.392.708 1.7 1.349 3.427 2.016 5.143.99 2.55 1.978 5.103 2.971 7.652.096.245.227.477.442.925M79.064 22.097c0-2.61-.004-5.218.002-7.828.004-1.499.872-2.426 2.244-2.412 1.337.013 2.222.982 2.223 2.462.004 5.19.004 10.382 0 15.572-.001 1.494-.87 2.435-2.23 2.443-1.381.009-2.234-.904-2.238-2.41-.004-2.61 0-5.218 0-7.827M78.736 6.578c.013-1.394 1.02-2.248 2.62-2.223 1.5.024 2.506.952 2.503 2.307-.003 1.372-1.061 2.325-2.585 2.327-1.577.001-2.552-.923-2.538-2.41"/>
        <g transform="translate(0 -.54)">
            <mask id="d" fill="#fff">
                <use xlink:href="#c"/>
            </mask>
            <path fill="#656B6F" d="M23.558 38.263a11.623 11.623 0 0 1-10.356-6.308l-.046-.082c-.224.012-.449.018-.672.018C5.6 31.891 0 26.28 0 19.383 0 12.487 5.6 6.877 12.484 6.877c2.639 0 5.161.816 7.295 2.358a6.9 6.9 0 0 1 .495.43l.501.535c1.552 1.673 6.154 6.743 6.154 6.743l2.232 2.408 5.334 5.662.235.262a8.674 8.674 0 0 0 6.368 2.794c4.78 0 8.67-3.896 8.67-8.686 0-4.788-3.89-8.685-8.67-8.685-2.039 0-4.021.724-5.58 2.04l-1.032 1.292 2.3 2.307-6.665-.39-.408-6.707 2.074 2.083 1.017-1.267a12.217 12.217 0 0 1 4.056-2.437 8.023 8.023 0 0 0-6.598-3.423c-2.66 0-5.404 1.524-6.984 3.884l-.19.285-2.49-2.72.137-.182a12.897 12.897 0 0 1 3.106-2.893c1.977-1.293 4.2-1.977 6.421-1.977 4.38 0 8.334 2.407 10.354 6.293.161-.006.32-.01.482-.01 6.883 0 12.484 5.611 12.484 12.507 0 6.897-5.6 12.508-12.484 12.508-2.74 0-5.45-.927-7.63-2.611L18.829 13.488l-.756-.742a8.642 8.642 0 0 0-5.59-2.048c-4.78 0-8.67 3.897-8.67 8.685 0 4.79 3.89 8.686 8.67 8.686a8.711 8.711 0 0 0 5.224-1.753l1.138-1.03.254-.331-2.256-2.265 6.664.389.41 6.71-2.12-2.126-.24.308a12.6 12.6 0 0 1-4.694 3.122 8.006 8.006 0 0 0 6.695 3.569c2.466 0 5.125-1.417 6.777-3.608l.194-.26 2.465 2.697-.15.182c-2.34 2.83-5.897 4.59-9.286 4.59" mask="url(#d)"/>
        </g>
    </g>
</svg>
