<svg xmlns="http://www.w3.org/2000/svg" xmlns:xlink="http://www.w3.org/1999/xlink" width="165" height="54" viewBox="0 0 165 54">
    <defs>
        <path id="a" d="M0 0h164.991v53.967H0z"/>
    </defs>
    <g fill="none" fill-rule="evenodd">
        <mask id="b" fill="#fff">
            <use xlink:href="#a"/>
        </mask>
        <path fill="#656B6F" d="M83.47 22.87a2.237 2.237 0 0 1-.018-.882c.125-.548.495-1.143 1.557-1.143.995 0 1.574.614 1.574 1.539v1.04h4.24v-1.188c0-3.683-3.321-4.26-5.726-4.26-3.024 0-5.5.993-5.95 3.762-.12.754-.148 1.422.042 2.277.734 3.454 6.785 4.458 7.663 6.64.154.412.11.941.03 1.253-.13.568-.518 1.141-1.657 1.141-1.069 0-1.713-.613-1.713-1.534l-.003-1.64h-4.56v1.303c0 3.776 2.977 4.918 6.182 4.918 3.07 0 5.606-1.042 6.014-3.87.194-1.46.045-2.411-.03-2.769-.712-3.545-7.16-4.61-7.646-6.587zm39.03 9.31l-4.046-13.755h-6.38V35.33h4.216l-.245-14.195 4.348 14.195h6.119V18.425h-4.248l.235 13.755zM41.397 18.425L38.214 35.51h4.641l2.402-15.82 2.341 15.82h4.61L49.04 18.425h-7.641zm25.965 0l-2.169 13.353-2.167-13.353H56.01l-.368 17.086h4.296l.114-15.82 2.955 15.82h4.36l2.958-15.82.118 15.82h4.308l-.386-17.086h-7.003zm39.945 0h-4.352v12.64c.008.22 0 .467-.036.646-.092.427-.454 1.243-1.65 1.243-1.185 0-1.556-.816-1.638-1.243-.046-.18-.05-.427-.046-.646v-12.64h-4.345V30.67c-.005.318.02.963.036 1.131.302 3.19 2.83 4.228 5.992 4.228 3.166 0 5.692-1.039 6.002-4.228.02-.168.053-.813.037-1.131V18.425zm57.614-5.359C163.806 5.866 150.9 1.278 131.615.191 107.385-1.175 58.69 4.788 26.994 18.09a10.7 10.7 0 0 1 2.208-.21c2.431 0 5.801.592 5.801 4.308v1.202H30.72v-1.057c0-.932-.593-1.552-1.599-1.552-1.083 0-1.456.608-1.574 1.152-.046.188-.066.55.017.894.49 2.004 7.01 3.064 7.733 6.652.07.361.226 1.322.021 2.795-.417 2.86-2.967 3.912-6.074 3.912-3.23 0-6.249-1.148-6.249-4.969V29.91h4.614l.003 1.644c0 .934.643 1.557 1.719 1.557 1.149 0 1.536-.583 1.676-1.156.085-.32.135-.849-.032-1.262-.888-2.209-6.996-3.22-7.742-6.714-.18-.862-.16-1.535-.034-2.303.189-1.15.722-1.996 1.499-2.594-7.918 3.507-14.651 7.496-19.492 11.97-3.724 3.443-5.617 6.739-5.13 9.881.869 5.605 7.338 8.744 16.717 10.8 15.375 3.37 41.213 2.893 67.276-1.199 19.863-3.119 39.825-8.29 55.047-14.866-.628.122-1.297.178-1.984.178-3.043 0-5.76-1.104-6.041-4.22a9.81 9.81 0 0 1-.07-1.128v-7.185c0-.313.052-.836.087-1.13.378-3.196 2.981-4.22 6.034-4.22 3.047 0 5.703 1.016 6.028 4.22.053.545.032 1.13.032 1.13v.562h-4.328v-.949s0-.413-.054-.659c-.075-.372-.4-1.238-1.714-1.238-1.255 0-1.628.823-1.71 1.238-.062.229-.078.531-.078.807v7.81c0 .222.012.458.046.65.074.462.506 1.247 1.75 1.247 1.248 0 1.688-.785 1.76-1.247.036-.192.049-.428.044-.65v-2.473h-1.762v-2.494h6.08v4.581c-.008.311-.013.553-.061 1.128-.116 1.263-.63 2.196-1.402 2.857 6.453-2.97 11.93-6.206 16.014-9.653 4.44-3.746 7.73-7.928 7.136-11.764z" mask="url(#b)"/>
    </g>
</svg>
