<svg xmlns="http://www.w3.org/2000/svg" xmlns:xlink="http://www.w3.org/1999/xlink" width="166" height="32" viewBox="0 0 166 32">
    <defs>
        <path id="a" d="M6.887 9.079C6.713 8.975.103 5.174.103 5.174s-.072.154.108.289l6.676 5.251 14.418-9.695c.231-.171.17-.333.17-.333L6.887 9.079"/>
        <path id="c" d="M6.887 9.079C6.713 8.975.103 5.174.103 5.174s-.072.154.108.289l6.676 5.251 14.418-9.695c.231-.171.17-.333.17-.333L6.887 9.079"/>
        <path id="e" d="M6.887 9.079C6.713 8.975.103 5.174.103 5.174s-.072.154.108.289l6.676 5.251 14.418-9.695c.231-.171.17-.333.17-.333L6.887 9.079"/>
        <path id="g" d="M8.887 10.17L.343 5.255s-.068.159.107.287l8.437 6.071L26.445.3c.16-.117.104-.286.104-.286S9.275 9.949 8.887 10.17"/>
        <path id="i" d="M8.887 10.17L.343 5.255s-.068.159.107.287l8.437 6.071L26.445.3c.16-.117.104-.286.104-.286S9.275 9.949 8.887 10.17"/>
        <path id="k" d="M8.887 10.17L.343 5.255s-.068.159.107.287l8.437 6.071L26.445.3c.16-.117.104-.286.104-.286S9.275 9.949 8.887 10.17"/>
        <path id="m" d="M10.813 11.733c-.547.313-.877.505-.923.532L.276 6.736s-.037.188.109.287l9.505 6.738L29.748 1.067c.161-.118.108-.288.108-.288L10.813 11.733"/>
        <path id="o" d="M10.813 11.733c-.547.313-.877.505-.923.532L.276 6.736s-.037.188.109.287l9.505 6.738L29.748 1.067c.161-.118.108-.288.108-.288L10.813 11.733"/>
        <path id="q" d="M10.813 11.733c-.547.313-.877.505-.923.532L.276 6.736s-.037.188.109.287l9.505 6.738L29.748 1.067c.161-.118.108-.288.108-.288L10.813 11.733"/>
        <path id="s" d="M0 .73h32.539V32H0z"/>
        <path id="u" d="M9.887 8.031L4.238 4.783c-.403.443-.782.908-1.135 1.393l6.784 3.903 14.588-8.393a16.215 16.215 0 0 0-1.901-.952L9.887 8.031zm0 4.094L2.142 7.667a16.257 16.257 0 0 0-.797 1.589l8.542 4.914L27.551 4.012a16.182 16.182 0 0 0-1.431-1.224L9.887 12.125zm0 4.093L.72 10.943a17.053 17.053 0 0 0-.391 1.526l-.052.267 9.61 5.529L29.856 6.779a16.169 16.169 0 0 0-.705-.987 12.323 12.323 0 0 0-.201-.252l-.158-.194L9.887 16.218zm0 4.092L.038 14.645a16.356 16.356 0 0 0 .236 4.034 16.112 16.112 0 0 0 1.942 5.249 16.257 16.257 0 0 0 4.622 5.055 16.45 16.45 0 0 0 4.101 2.118c.65.229 1.324.415 2.008.559 1.006.209 2.046.325 3.111.339h.087a16.354 16.354 0 0 0 8.418-2.268l.038-.023.027-.016a16.233 16.233 0 0 0 2.064-1.468l.04-.034.03-.025a16.375 16.375 0 0 0 2.762-3.002 16.21 16.21 0 0 0 2.71-6.289 16.428 16.428 0 0 0 .306-3.144c0-.298-.009-.595-.024-.889a16.318 16.318 0 0 0-.165-1.56 16.346 16.346 0 0 0-1.602-4.969L9.887 20.31z"/>
        <path id="w" d="M.511.68h124.316v17.528H.511z"/>
        <path id="y" d="M0 33h165.827V.463H0z"/>
    </defs>
    <g fill="none" fill-rule="evenodd">
        <path fill="#656B6F" d="M3.211 6c-.18-.134-.107-.288-.107-.288s6.609 3.8 6.784 3.904c.053-.032 14.588-8.393 14.588-8.393s.06.162-.171.333L9.888 11.25 3.211 6z"/>
        <g transform="translate(3 .537)">
            <mask id="b" fill="#fff">
                <use xlink:href="#a"/>
            </mask>
            <path fill="#656B6F" d="M.104 5.175s6.609 3.8 6.784 3.904L21.482.681" mask="url(#b)"/>
        </g>
        <g transform="translate(3 .537)">
            <mask id="d" fill="#fff">
                <use xlink:href="#c"/>
            </mask>
            <path fill="#656B6F" d="M.063 5.237s6.734 4.205 6.822 4.256C7.08 9.382 21.526.753 21.526.753" mask="url(#d)"/>
        </g>
        <g transform="translate(3 .537)">
            <mask id="f" fill="#fff">
                <use xlink:href="#e"/>
            </mask>
            <path fill="#656B6F" d="M.021 5.3l6.86 4.608L21.572.822" mask="url(#f)"/>
        </g>
        <path fill="#656B6F" d="M1.45 9.08c-.175-.13-.107-.287-.107-.287s8.37 4.815 8.545 4.914C10.275 13.486 27.55 3.55 27.55 3.55s.055.169-.104.286L9.888 15.15 1.45 9.08z"/>
        <g transform="translate(1 3.537)">
            <mask id="h" fill="#fff">
                <use xlink:href="#g"/>
            </mask>
            <path fill="#656B6F" d="M.343 5.256l8.545 4.915C9.276 9.949 26.553.01 26.553.01" mask="url(#h)"/>
        </g>
        <g transform="translate(1 3.537)">
            <mask id="j" fill="#fff">
                <use xlink:href="#i"/>
            </mask>
            <path fill="#656B6F" d="M.302 5.318s8.495 5.22 8.583 5.27C9.079 10.475 26.599.08 26.599.08" mask="url(#j)"/>
        </g>
        <g transform="translate(1 3.537)">
            <mask id="l" fill="#fff">
                <use xlink:href="#k"/>
            </mask>
            <path fill="#656B6F" d="M.26 5.38l8.622 5.624L26.644.149" mask="url(#l)"/>
        </g>
        <path fill="#656B6F" d="M.385 12.56c-.146-.099-.108-.288-.108-.288l9.613 5.53c.046-.027.377-.219.923-.532L29.856 6.316s.053.17-.108.288L9.89 19.298.385 12.56z"/>
        <g>
            <g transform="translate(0 5.537)">
                <mask id="n" fill="#fff">
                    <use xlink:href="#m"/>
                </mask>
                <path fill="#656B6F" d="M.276 6.736s9.437 5.426 9.611 5.529L29.855.78" mask="url(#n)"/>
            </g>
            <g transform="translate(0 5.537)">
                <mask id="p" fill="#fff">
                    <use xlink:href="#o"/>
                </mask>
                <path fill="#656B6F" d="M.236 6.798l9.648 5.882C10.08 12.568 29.901.85 29.901.85" mask="url(#p)"/>
            </g>
            <g transform="translate(0 5.537)">
                <mask id="r" fill="#fff">
                    <use xlink:href="#q"/>
                </mask>
                <path fill="#656B6F" d="M.195 6.861l9.687 6.233L29.947.918" mask="url(#r)"/>
            </g>
        </g>
        <g transform="translate(0 -.463)">
            <mask id="t" fill="#fff">
                <use xlink:href="#s"/>
            </mask>
            <path fill="#656B6F" d="M9.888 10.079l14.594-8.396A16.457 16.457 0 0 0 22.58.73L9.888 8.03 4.236 4.78c-.403.444-.782.91-1.134 1.395l6.786 3.904zM27.553 4.01c-.451-.435-.93-.844-1.428-1.226l-16.237 9.34-7.75-4.46c-.294.514-.56 1.045-.795 1.59l8.545 4.915L27.553 4.01zM9.888 16.218l-9.17-5.275c-.18.585-.327 1.182-.441 1.793l9.61 5.529L29.857 6.78c-.328-.5-.685-.98-1.063-1.434L9.888 16.218zm22.65-.488c0 8.986-7.282 16.27-16.268 16.27C7.285 32 0 24.716 0 15.73c0-.366.014-.727.038-1.085l9.85 5.665 20.865-12a16.23 16.23 0 0 1 1.786 7.42z" mask="url(#t)"/>
        </g>
        <g transform="translate(0 -.463)">
            <mask id="v" fill="#fff">
                <use xlink:href="#u"/>
            </mask>
            <path d="M9.887 8.031L4.238 4.783c-.403.443-.782.908-1.135 1.393l6.784 3.903 14.588-8.393a16.215 16.215 0 0 0-1.901-.952L9.887 8.031zm0 4.094L2.142 7.667a16.257 16.257 0 0 0-.797 1.589l8.542 4.914L27.551 4.012a16.182 16.182 0 0 0-1.431-1.224L9.887 12.125zm0 4.093L.72 10.943a17.053 17.053 0 0 0-.391 1.526l-.052.267 9.61 5.529L29.856 6.779a16.169 16.169 0 0 0-.705-.987 12.323 12.323 0 0 0-.201-.252l-.158-.194L9.887 16.218zm0 4.092L.038 14.645a16.356 16.356 0 0 0 .236 4.034 16.112 16.112 0 0 0 1.942 5.249 16.257 16.257 0 0 0 4.622 5.055 16.45 16.45 0 0 0 4.101 2.118c.65.229 1.324.415 2.008.559 1.006.209 2.046.325 3.111.339h.087a16.354 16.354 0 0 0 8.418-2.268l.038-.023.027-.016a16.233 16.233 0 0 0 2.064-1.468l.04-.034.03-.025a16.375 16.375 0 0 0 2.762-3.002 16.21 16.21 0 0 0 2.71-6.289 16.428 16.428 0 0 0 .306-3.144c0-.298-.009-.595-.024-.889a16.318 16.318 0 0 0-.165-1.56 16.346 16.346 0 0 0-1.602-4.969L9.887 20.31z" mask="url(#v)"/>
        </g>
        <g transform="translate(0 -1.463)">
            <g transform="translate(41 5)">
                <mask id="x" fill="#fff">
                    <use xlink:href="#w"/>
                </mask>
                <path fill="#656B6F" d="M118.897 10.469c1.182 1.662 3.93 5.377 5.93 7.401h-5.665c-.41-.892-1.015-2.363-2.774-5.015l-2.555-3.833 2.216-2.868c1.327-1.713 3.04-4.005 3.498-5.162h3.956v.024c-1.593.919-4.272 3.617-5.043 4.461l-1.758 1.881 2.195 3.111zm-8.969-7.594c0-.917-.123-1.159-.968-1.351V.992h5.549v.532c-.844.192-.965.434-.965 1.351V15.99c0 .916.121 1.157.965 1.349v.531h-5.549v-.531c.845-.192.969-.433.969-1.349V2.875zM93.87 4.031V15.99c0 .916.24 1.157 1.203 1.349v.531h-4.096v-.531c.963-.192 1.201-.433 1.201-1.349V2.875c0-.917-.26-1.232-1.201-1.351V.992h5.132c.364.626 1.016 1.664 2.56 3.86l5.085 7.016V2.875c0-.917-.243-1.159-1.206-1.351V.992h4.1v.532c-.962.192-1.206.434-1.206 1.351v15.118h-1.591L93.87 4.031zm-10.467 6.606l-2.265-6.8-2.34 6.8h4.605zm2.218 7.233c-.145-.916-.672-2.603-1.13-3.954l-.725-2.147h-5.354c-.553 1.69-.964 3.064-1.178 4.03-.192.962-.338 1.686-.363 2.071h-3.063c.408-.651 1.18-2.146 2.34-4.965l3.11-7.668c.699-1.711.819-2.243.819-2.725 0-.337-.094-.796-.963-.988V.992h4.82c.073.506.12 1.085.629 2.509l3.544 10.104c.698 1.975 1.447 3.662 1.808 4.265h-4.294zM64.403 9.167v6.244c0 1.086.22 1.399 1.426 1.399h.648c1.956 0 3.038-1.23 3.038-3.858 0-2.53-.94-3.785-3.617-3.785h-1.495zm0-1.062h1.594c1.951 0 2.966-.699 2.966-2.964 0-2.266-.966-3.087-2.822-3.087h-.7c-.892 0-1.038.266-1.038.989v5.062zM66.334.992c3.352 0 6.293.388 6.293 3.86 0 2.361-1.591 3.375-3.423 3.736 2.195.145 4.028 1.664 4.028 4.196 0 4.147-2.8 5.086-7.022 5.086h-6.386v-.531c.843-.192.964-.433.964-1.349V2.875c0-.917-.12-1.159-.964-1.351V.992h6.51zm-16.13 8.054c2.338 0 3.014-1.207 3.014-3.52 0-2.436-1.084-3.472-2.676-3.472h-.823c-.721 0-1.06.121-1.06.915v6.077h1.546zm8.051 8.824h-4.627c-.29-.892-1.59-4.292-2.075-5.496l-.916-2.266H48.66v5.882c0 .916.122 1.157.967 1.349v.531h-5.549v-.531c.846-.192.966-.433.966-1.349V2.875c0-.917-.12-1.159-.965-1.351V.992h6.728c3.613 0 6.123.868 6.123 4.437 0 2.459-1.422 3.617-2.966 4.172.317.626 2.919 6.245 4.291 8.269zM35.061 2.054c-.724 0-.843.192-.843.77v5.234h2.243c.94 0 2.412-.098 2.99-.506v2.121c-.578-.41-2.05-.506-2.99-.506H34.22v6.294c0 1.011.41 1.349 2.627 1.349h.48c2.197 0 2.774-.145 3.258-2.243l.145-.626h1.06a54.759 54.759 0 0 0 0 3.929H29.636v-.531c.843-.192.965-.433.965-1.349V2.875c0-.917-.122-1.159-.965-1.351V.992h11.766a46.658 46.658 0 0 0 0 3.665h-.916l-.215-.698c-.532-1.737-1.134-1.905-3.33-1.905h-1.88zM18.62 9.167v6.244c0 1.086.215 1.399 1.422 1.399h.651c1.953 0 3.038-1.23 3.038-3.858 0-2.53-.94-3.785-3.617-3.785h-1.494zm0-1.062h1.59c1.954 0 2.966-.699 2.966-2.964 0-2.266-.965-3.087-2.82-3.087h-.7c-.893 0-1.036.266-1.036.989v5.062zM20.547.992c3.352 0 6.29.388 6.29 3.86 0 2.361-1.588 3.375-3.421 3.736 2.194.145 4.026 1.664 4.026 4.196 0 4.147-2.796 5.086-7.015 5.086h-6.388v-.531c.843-.192.963-.433.963-1.349V2.875c0-.917-.12-1.159-.963-1.351V.992h6.508zM4.538 10.299C2.68 9.601.511 8.588.511 5.573.511 2.777 2.441.68 7.021.68c2.651 0 4.076.601 4.557.795a36.59 36.59 0 0 0 0 3.279h-.941l-.29-.821c-.433-1.228-1.18-2.145-3.133-2.145-2.533 0-3.329 1.206-3.329 2.653 0 1.543.75 2.098 2.39 2.724l2.311.868c2.51.941 3.813 2.315 3.813 4.967 0 2.507-1.69 5.208-6.752 5.208-2.652 0-4.438-.579-4.92-.772a46.049 46.049 0 0 0 0-3.641H1.79l.29 1.182c.335 1.254 1.155 2.122 3.446 2.122 2.146 0 3.425-1.061 3.425-2.966 0-1.421-.676-2.434-2.147-2.989l-2.264-.845z" mask="url(#x)"/>
            </g>
            <mask id="z" fill="#fff">
                <use xlink:href="#y"/>
            </mask>
            <path fill="#656B6F" d="M41.722 28.778h124.105v-1.687H41.722z" mask="url(#z)"/>
        </g>
    </g>
</svg>
