<svg xmlns="http://www.w3.org/2000/svg" xmlns:xlink="http://www.w3.org/1999/xlink" width="166" height="42" viewBox="0 0 166 42">
    <defs>
        <path id="a" d="M.828.455h41.78v41.59H.828z"/>
        <path id="c" d="M0 .51h13.708v13.935H0z"/>
        <path id="e" d="M0 42.567h165.389V.977H0z"/>
    </defs>
    <g fill="none" fill-rule="evenodd" transform="translate(0 -1)">
        <g transform="translate(122.781 .523)">
            <mask id="b" fill="#fff">
                <use xlink:href="#a"/>
            </mask>
            <path fill="#656B6F" d="M.828 21.25C.828 9.765 10.18.454 21.718.454s20.89 9.31 20.89 20.796c0 11.485-9.352 20.794-20.89 20.794S.828 32.734.828 21.25" mask="url(#b)"/>
        </g>
        <path fill="#FFF" d="M126.675 21.773c0-9.8 7.98-17.743 17.824-17.743 9.844 0 17.824 7.943 17.824 17.743 0 9.799-7.98 17.742-17.824 17.742-9.844 0-17.824-7.943-17.824-17.742m13.493-14.05l4.333 9.688 4.333-9.686a14.823 14.823 0 0 0-4.335-.644c-1.508 0-2.962.225-4.33.643m8.665 28.096l-4.333-9.687-4.333 9.688c1.37.418 2.823.643 4.33.643 1.51 0 2.964-.226 4.336-.644m9.726-18.524l-7.995 17.873c5.126-2.304 8.692-7.435 8.692-13.396 0-1.561-.243-3.065-.697-4.477m-26.051-4.092l6.937 15.509 2.875-6.422h4.356l2.878 6.417 6.934-15.504a14.803 14.803 0 0 0-4.401-4.034l-5.411 12.083h-4.356l-5.408-12.085a14.833 14.833 0 0 0-4.404 4.036m-2.768 8.569c0 5.961 3.566 11.092 8.692 13.396l-7.995-17.873a14.632 14.632 0 0 0-.697 4.477"/>
        <g transform="translate(0 15.19)">
            <mask id="d" fill="#fff">
                <use xlink:href="#c"/>
            </mask>
            <path fill="#656B6F" d="M8.468 14.445H5.16L0 .51h3.348l2.659 7.862c.335.981.59 1.884.827 2.807.237-.962.492-1.806.807-2.71L10.4.51h3.309l-5.24 13.936z" mask="url(#d)"/>
        </g>
        <path fill="#656B6F" d="M22.82 25.316c0-2.643-2.065-4.59-4.89-4.59-2.926 0-4.905 2.024-4.905 4.57 0 2.707 2.098 4.63 4.77 4.63 3.216 0 5.024-2.277 5.024-4.61m-2.83 0c0 1.157-.823 2.196-2.058 2.196-1.077 0-2.077-.902-2.077-2.157 0-1.176.784-2.215 2.058-2.215 1.156 0 2.077.941 2.077 2.176"/>
        <mask id="f" fill="#fff">
            <use xlink:href="#e"/>
        </mask>
        <path fill="#656B6F" d="M24.962 29.635h2.801V14.928h-2.801zM35.79 29.635l-2.723-4.03v4.03h-2.799V14.928h2.8v9.638l2.721-3.53h3.431l-3.332 3.961 3.569 4.638zM43.662 29.893c-1.987 0-3.015-.648-3.547-2.04l2.37-.92c.218.568.675.979 1.257.979.56 0 .902-.215.902-.588 0-1.253-4.235-.705-4.235-3.703 0-1.568 1.286-2.862 3.493-2.862 1.627 0 2.768.589 3.339 2.02l-2.243.862c-.276-.686-.755-.9-1.217-.9-.36 0-.76.214-.76.606 0 1.371 4.24.745 4.24 3.762 0 1.744-1.554 2.784-3.6 2.784M60.788 29.635h-2.644l-1.479-4.231a7.53 7.53 0 0 1-.355-1.296c-.099.491-.237.963-.355 1.317l-1.48 4.21h-2.76l-3.729-8.618h2.918l1.638 4.152c.198.472.336 1.002.493 1.512.138-.51.277-1.06.414-1.473l1.46-4.191h2.88l1.361 3.916c.198.59.375 1.139.493 1.708.198-.647.395-1.216.593-1.708l1.538-3.916h2.86l-3.846 8.618zM74.804 29.634v-8.596H72.04v1c-.476-.726-1.502-1.275-2.706-1.275-2.683 0-4.296 1.982-4.296 4.69 0 2.61 1.535 4.475 4.04 4.475 1.342 0 2.25-.471 2.962-1.178v.884h2.763zm-2.666-4.16c0 1.177-.77 2.255-2.073 2.255-1.342 0-2.153-1.078-2.153-2.354 0-1.315.89-2.198 2.054-2.198 1.323 0 2.172 1.06 2.172 2.296zM86.548 28.814v-7.783h-2.763v.978c-.533-.841-1.518-1.213-2.72-1.213-2.344 0-4.136 1.917-4.136 4.506 0 2.275 1.3 4.258 4.057 4.258 1.084 0 2.03-.314 2.799-1.158v1.217c0 1.399-.632 2.148-1.932 2.148-.847 0-1.655-.532-1.655-1.28h-2.776c0 1.89 1.555 3.364 4.254 3.364 1.576 0 2.774-.374 3.734-1.298.864-.865 1.138-1.83 1.138-3.739m-2.686-3.591c0 1.157-.729 2.178-1.97 2.178-1.299 0-2.088-.884-2.088-2.159 0-1.137.808-2.099 1.99-2.099 1.418 0 2.068 1.158 2.068 2.08M97.637 25.219c0-2.854-1.803-4.493-4.428-4.493-2.69 0-4.523 2.013-4.523 4.67 0 3.034 2.17 4.53 4.505 4.53 1.997 0 3.25-.689 4.25-1.988l-1.803-1.18c-.568.754-1.259 1.12-2.152 1.12-1.207 0-2.04-.811-2.098-1.874h6.23c.02-.335.02-.628.02-.785m-2.764-.865h-3.467c.1-.953.772-1.654 1.784-1.654 1.049 0 1.683.837 1.683 1.654M105.58 29.635V24.87c0-.786-.256-1.69-1.316-1.69-.549 0-1.706.314-1.706 1.927v4.528h-2.801v-8.607h2.801v1.135c.412-.567 1.216-1.33 2.786-1.33 1.103 0 1.812.391 2.266.84.553.548.77 1.253.77 2.51v5.452h-2.8z" mask="url(#f)"/>
    </g>
</svg>
