<svg xmlns="http://www.w3.org/2000/svg" xmlns:xlink="http://www.w3.org/1999/xlink" width="166" height="34" viewBox="0 0 166 34">
    <defs>
        <path id="a" d="M0 .835h33.165V34H0z"/>
        <path id="c" d="M16.583.835C7.439.835 0 8.273 0 17.417c0 1.577.226 3.1.638 4.545.025.099.049.196.077.292.007.019.015.034.021.055C2.828 29.072 9.14 34 16.583 34c3.441 0 6.642-1.055 9.295-2.857.027-.014.053-.029.079-.045.158-.108.309-.221.458-.338a16.623 16.623 0 0 0 6.253-9.315c.052-.175.099-.352.139-.531a.781.781 0 0 0 .013-.127c.227-1.087.345-2.216.345-3.37 0-2.239-.438-4.41-1.303-6.454a.77.77 0 0 0-1.01-.41.769.769 0 0 0-.41 1.01 14.956 14.956 0 0 1 1.181 5.854c0 1.244-.155 2.454-.443 3.611-.226.73-.627 1.407-1.18 2.019.015-.262.023-.526.023-.796.007-2.959-.811-6.084-2.328-9.023 1.11-.954 1.82-2.136 2.063-3.455a.767.767 0 0 0-.618-.897.768.768 0 0 0-.898.618c-.161.872-.615 1.672-1.323 2.353-.22-.364-.451-.725-.692-1.081-1.355-1.985-2.965-3.702-4.723-5.072 2.323.151 4.47.716 6.2 1.682.272.155.632.151.885-.062a.77.77 0 0 0 .098-1.086C26.203 2.75 21.904.835 16.583.835zm.387 2.26a14.551 14.551 0 0 0-2.067-.622 14.883 14.883 0 0 1 1.658-.095c.263.003.586.317.922.927-.17-.071-.342-.144-.513-.21zm1.672-.606c.625.07 1.293.178 1.979.339-.43.23-.875.519-1.329.866a7.819 7.819 0 0 0-.65-1.205zm2.597 1.652c.528-.343 1.016-.578 1.424-.675.775.31 1.54.704 2.269 1.207a19.199 19.199 0 0 0-3.693-.532zM8.725 6.174c.172-.8.652-1.516 1.398-2.108 1.8-.537 3.895-.409 6.097.399-.927.162-1.854.375-2.769.65a22.514 22.514 0 0 0-4.777 2.057 3.297 3.297 0 0 1 .051-.998zm-1.447-.561c-.02.078-.044.157-.061.239a4.895 4.895 0 0 0 .046 2.212c-1.66 1.145-3.101 2.499-4.252 4.019-.35.465-.663.936-.946 1.411a15.067 15.067 0 0 1 5.213-7.881zm3.318 4.915c-.638-.598-1.122-1.22-1.449-1.845a20.864 20.864 0 0 1 4.748-2.091 22.251 22.251 0 0 1 3.063-.687c-1.479 1.655-2.952 3.756-4.303 6.131a11.273 11.273 0 0 1-2.059-1.508zm6.591 3.213a16.314 16.314 0 0 1-3.154-1.009c1.438-2.518 3.014-4.707 4.566-6.335.485 1.91.893 4.477 1.063 7.66a14.891 14.891 0 0 1-2.475-.316zm3.058-7.066c1.754 1.305 3.361 2.99 4.707 4.959.254.374.495.755.723 1.137-1.234.712-2.79 1.137-4.471 1.258-.143-2.662-.46-5.223-.959-7.354zM4.809 21.009c-1.31-1.212-2.21-2.492-2.67-3.766.364-1.427 1.068-2.858 2.104-4.23.983-1.302 2.205-2.473 3.608-3.48.404.731.969 1.444 1.691 2.121a12.792 12.792 0 0 0 2.371 1.733 53.23 53.23 0 0 0-.716 1.411c-1.369 2.804-2.486 5.814-3.142 8.545a17.374 17.374 0 0 1-3.246-2.334zm10.002 4.84a24.85 24.85 0 0 1-5.348-1.784c.536-2.415 1.536-5.341 3.12-8.59.23-.47.464-.934.705-1.387a17.91 17.91 0 0 0 3.576 1.162c.961.206 1.92.318 2.86.35.018.58.027 1.176.027 1.79 0 3.633-.292 6.648-.71 9.004-1.379-.062-2.8-.24-4.23-.545zm6.481-8.459c0-.602-.009-1.206-.025-1.809 1.919-.129 3.695-.627 5.15-1.464 1.347 2.665 2.071 5.478 2.063 8.131-.001.768-.067 1.5-.188 2.189-.694.425-1.49.793-2.389 1.095-1.592.537-3.388.828-5.288.877.457-2.742.677-5.924.677-9.019zM2.12 21.533a7.986 7.986 0 0 1-.248-1.532 13.498 13.498 0 0 0 1.889 2.142c1.13 1.042 2.469 1.976 3.962 2.774-.304 1.706-.392 3.25-.198 4.497a15.075 15.075 0 0 1-5.405-7.881zm7.955 9.442a.82.82 0 0 0-.152-.101c-.856-.416-1.203-2.325-.756-5.247a26.438 26.438 0 0 0 5.323 1.729c1.428.305 2.85.494 4.241.566-.682 2.966-1.557 4.523-2.135 4.523a.763.763 0 0 0-.109.009 14.957 14.957 0 0 1-6.412-1.479zm10.246-3.02c2.179-.027 4.245-.347 6.074-.962.462-.153.899-.325 1.317-.512-.51 1.243-1.259 2.279-2.231 3.051a14.988 14.988 0 0 1-6.655 2.758c.618-1.066 1.114-2.569 1.495-4.335z"/>
        <path id="e" d="M0 34h165.328V.835H0z"/>
    </defs>
    <g fill="none" fill-rule="evenodd">
        <g transform="translate(0 -.835)">
            <mask id="b" fill="#fff">
                <use xlink:href="#a"/>
            </mask>
            <path fill="#656B6F" d="M0 17.417c0 1.578.226 3.1.638 4.546.026.098.049.195.077.29l.021.056c2.092 6.763 8.404 11.69 15.846 11.69 3.442 0 6.644-1.054 9.296-2.856l.079-.045a8.73 8.73 0 0 0 .458-.338 16.626 16.626 0 0 0 6.253-9.315c.053-.174.1-.352.139-.531a.911.911 0 0 0 .013-.127c.227-1.087.345-2.215.345-3.37 0-2.238-.438-4.411-1.304-6.455a.768.768 0 0 0-1.009-.408.769.769 0 0 0-.411 1.009 14.925 14.925 0 0 1 1.182 5.854 14.98 14.98 0 0 1-.442 3.61c-.227.73-.628 1.408-1.181 2.02.015-.262.023-.526.023-.797.007-2.958-.811-6.083-2.329-9.021 1.112-.955 1.821-2.136 2.065-3.456a.77.77 0 1 0-1.517-.279c-.161.872-.615 1.672-1.323 2.354a25.346 25.346 0 0 0-.692-1.082c-1.356-1.985-2.964-3.702-4.723-5.072 2.322.152 4.47.716 6.2 1.682.272.155.632.15.885-.062a.77.77 0 0 0 .098-1.086C26.202 2.75 21.904.835 16.582.835 7.439.835 0 8.273 0 17.417M16.971 3.095a14.641 14.641 0 0 0-2.068-.622 14.87 14.87 0 0 1 1.658-.095c.262.003.585.318.922.928-.17-.072-.341-.145-.512-.211m1.671-.606c.626.07 1.293.178 1.979.339-.431.23-.875.519-1.329.866a7.819 7.819 0 0 0-.65-1.205m2.597 1.652c.529-.343 1.016-.578 1.424-.675.774.31 1.54.705 2.269 1.206a19.266 19.266 0 0 0-3.693-.531M8.726 6.174c.171-.8.651-1.516 1.397-2.108 1.8-.537 3.895-.408 6.097.399a23.67 23.67 0 0 0-2.768.65 22.471 22.471 0 0 0-4.778 2.057 3.267 3.267 0 0 1 .052-.998m-1.448-.561c-.02.078-.044.157-.061.239a4.895 4.895 0 0 0 .046 2.212c-1.659 1.145-3.102 2.499-4.251 4.019-.35.464-.664.936-.948 1.412a15.07 15.07 0 0 1 5.214-7.882m3.318 4.915c-.638-.597-1.122-1.22-1.45-1.845a20.833 20.833 0 0 1 4.75-2.09 22.242 22.242 0 0 1 3.062-.688c-1.479 1.655-2.952 3.757-4.303 6.13a11.273 11.273 0 0 1-2.059-1.507m6.591 3.213a16.177 16.177 0 0 1-3.154-1.01c1.438-2.517 3.014-4.706 4.567-6.334.484 1.91.892 4.477 1.062 7.66a14.891 14.891 0 0 1-2.475-.316m3.058-7.066c1.754 1.305 3.361 2.99 4.706 4.959.255.374.495.755.724 1.137-1.234.712-2.79 1.138-4.471 1.258-.143-2.662-.46-5.222-.959-7.354M4.809 21.01c-1.309-1.213-2.21-2.493-2.67-3.767.364-1.427 1.068-2.86 2.104-4.23.983-1.302 2.205-2.473 3.608-3.48.403.732.969 1.445 1.691 2.12a12.853 12.853 0 0 0 2.371 1.735c-.244.464-.484.933-.716 1.41-1.369 2.804-2.486 5.814-3.142 8.545-1.217-.688-2.311-1.47-3.246-2.333m10.003 4.839a24.812 24.812 0 0 1-5.35-1.784c.537-2.415 1.537-5.341 3.121-8.59.23-.47.464-.933.705-1.386 1.108.496 2.313.89 3.576 1.16.961.207 1.92.319 2.861.35.017.58.026 1.177.026 1.79 0 3.634-.292 6.649-.71 9.005-1.38-.061-2.8-.24-4.229-.545m6.48-8.46c0-.601-.009-1.205-.025-1.808 1.919-.13 3.695-.626 5.15-1.463 1.347 2.664 2.07 5.477 2.062 8.13 0 .769-.066 1.5-.187 2.19-.694.424-1.49.792-2.389 1.094-1.592.537-3.387.828-5.289.877.457-2.742.678-5.924.678-9.02M2.12 21.534A8 8 0 0 1 1.872 20a13.547 13.547 0 0 0 1.889 2.143c1.129 1.04 2.468 1.975 3.962 2.773-.305 1.706-.391 3.25-.198 4.497a15.075 15.075 0 0 1-5.405-7.881m7.954 9.442a.776.776 0 0 0-.151-.1c-.857-.416-1.203-2.326-.756-5.248a26.438 26.438 0 0 0 5.323 1.729c1.428.306 2.85.494 4.24.566-.681 2.966-1.556 4.523-2.134 4.523-.038 0-.073.005-.109.009a14.935 14.935 0 0 1-6.413-1.48m10.247-3.02c2.179-.026 4.245-.346 6.075-.96.46-.155.898-.327 1.316-.512-.51 1.242-1.259 2.278-2.232 3.05a14.985 14.985 0 0 1-6.654 2.758c.617-1.065 1.114-2.57 1.495-4.335" mask="url(#b)"/>
        </g>
        <g transform="translate(0 -.835)">
            <mask id="d" fill="#fff">
                <use xlink:href="#c"/>
            </mask>
            <path fill="#656B6F" d="M0 34h33.165V.835H0z" mask="url(#d)"/>
        </g>
        <g transform="translate(0 -.835)">
            <path fill="#656B6F" d="M87.897 25.276h1.028l-1.224 4.268h-1.028l-.745-2.677-.754 2.677h-1.027l-1.226-4.268h1.06l.717 3.114.859-3.114h.763l.833 3.114.744-3.114zm3.067 3.507c.362 0 .968-.177.968-1.367 0-1.192-.606-1.369-.968-1.369-.626 0-.971.486-.971 1.37 0 .882.345 1.366.972 1.366zm0-3.543c.922 0 1.91.573 1.91 2.176 0 1.595-.987 2.161-1.91 2.161-.921 0-1.91-.566-1.91-2.16 0-1.604.989-2.177 1.91-2.177zm3.335 2.031h.506c.505 0 .82-.236.82-.614 0-.399-.275-.627-.751-.627h-.575v1.241zm1.88.98c.151.305.281.568.58.568h.216v.702l-.03.008c-.007 0-.163.043-.442.043-.715 0-.936-.493-1.132-.928-.16-.357-.294-.665-.671-.665h-.401v1.565h-.909v-4.268h1.513c1.104 0 1.621.433 1.621 1.358 0 .571-.347.925-.69 1.077.154.144.251.345.344.54zm2.135-2.975h-.906v4.268h2.754v-.756h-1.849v-3.512zm3.179 3.512h.53c.654 0 1.047-.49 1.047-1.319 0-.956-.415-1.439-1.233-1.439h-.344v2.758zm.36-3.512c1.326 0 2.12.824 2.12 2.206 0 1.31-.71 2.062-1.942 2.062h-1.448v-4.268h1.27zm4.651 3.512h.713c.462 0 .678-.175.678-.548 0-.46-.38-.556-.7-.556h-.69v1.104zm.622-1.767c.378 0 .555-.16.555-.5 0-.325-.225-.49-.668-.49h-.509v.99h.622zm1.01.272c.33.095.757.397.757 1.037 0 .771-.546 1.214-1.5 1.214h-1.796v-4.268h1.623c.924 0 1.394.385 1.394 1.147 0 .59-.269.798-.478.87zm2.862-.85l-.464 1.342h.934l-.47-1.343zm.465-1.138l1.553 4.24h-.943l-.364-1.048h-1.422l-.353 1.047h-.951l1.566-4.268h.9l.014.03zm4.21 2.608l-1.49-2.637h-.924v4.268h.91V27l1.487 2.545h.927v-4.268h-.91v2.637zm5.14-2.637h-1.079l-1.411 1.92v-1.92h-.924v4.268h.924V27.58l1.446 1.965h1.093l-1.651-2.152 1.603-2.116zm2.721 2.707h.938v.05c0 .275-.096.74-.75.74-.617 0-.986-.508-.986-1.357 0-.87.352-1.369.968-1.369.733 0 .758.74.758.771v.05l.847-.133v-.037c0-.308-.272-1.458-1.62-1.458-1.202 0-1.893.794-1.893 2.176 0 1.356.712 2.161 1.907 2.161 1.2 0 1.626-.835 1.626-1.552v-.742h-1.794v.7zm3.332-.712h.504c.506 0 .819-.236.819-.614 0-.399-.273-.627-.752-.627h-.57v1.241zm1.878.98c.15.305.28.568.582.568h.213v.702l-.028.008c-.01 0-.166.043-.445.043-.715 0-.938-.493-1.13-.928-.16-.357-.297-.665-.673-.665h-.397v1.565h-.91v-4.268h1.513c1.102 0 1.618.433 1.618 1.358 0 .571-.343.925-.688 1.077.153.144.25.345.345.54zm2.851.532c.36 0 .969-.177.969-1.367 0-1.192-.608-1.369-.969-1.369-.627 0-.974.486-.974 1.37 0 .882.346 1.366.974 1.366zm0-3.543c.922 0 1.906.573 1.906 2.176 0 1.595-.984 2.161-1.906 2.161-.925 0-1.911-.566-1.911-2.16 0-1.604.986-2.177 1.911-2.177zm4.874 2.593c0 .627-.24.934-.733.934-.5 0-.752-.315-.752-.934v-2.557h-.91v2.498c-.002.61.148 1.074.451 1.38.281.281.69.423 1.21.423.75 0 1.642-.31 1.642-1.803v-2.498h-.909v2.557zm2.582-.4h.543c.529 0 .793-.234.793-.686 0-.46-.29-.717-.823-.717h-.513v1.403zm.58-2.157c1.077 0 1.673.522 1.673 1.471 0 .894-.588 1.427-1.566 1.427h-.688v1.37h-.907v-4.268h1.488z"/>
            <mask id="f" fill="#fff">
                <use xlink:href="#e"/>
            </mask>
            <path fill="#656B6F" d="M40.876 29.537h1.092v-5.539h-1.092zM45.03 28.652c.546 0 .958-.172.958-.783 0-.569-.42-.792-.98-.792h-.974v1.575h.995zm-.118-2.342c.593 0 .792-.293.792-.72 0-.443-.293-.706-.944-.706h-.726v1.426h.878zm-1.97 3.227v-5.539h2.095c1.133 0 1.79.43 1.79 1.465 0 .981-.586 1.15-.863 1.15v.014c.371 0 1.235.324 1.235 1.36 0 1.155-.91 1.55-1.932 1.55h-2.326zM49.666 26.643c.657 0 1.139-.301 1.139-.871 0-.552-.387-.887-1.05-.887h-.816v1.758h.727zm2.817 2.879s-.205.056-.57.056c-1.678 0-1.218-2.113-2.39-2.113h-.584v2.073h-1.092v-5.54h1.945c1.361 0 2.091.501 2.091 1.744 0 .815-.531 1.247-.958 1.407.569.466.6 1.543 1.329 1.543h.229v.83zM54.816 28.652c.847 0 1.44-.617 1.44-1.804 0-1.227-.522-1.964-1.685-1.964h-.514v3.768h.758zm-1.852.885v-5.539h1.623c1.455 0 2.753.786 2.753 2.865 0 1.972-1.17 2.674-2.517 2.674h-1.858zM60.585 28.273a1.02 1.02 0 0 1-1.021-1.03 1.025 1.025 0 0 1 2.049 0c0 .571-.459 1.03-1.028 1.03M64.088 29.537h1.093v-5.539h-1.093zM68.004 28.652c.848 0 1.442-.617 1.442-1.804 0-1.227-.522-1.964-1.686-1.964h-.515v3.768h.759zm-1.852.885v-5.539h1.623c1.457 0 2.753.786 2.753 2.865 0 1.972-1.17 2.674-2.515 2.674h-1.861zM72.466 27.323h1.394l-.705-2.01-.69 2.01zm1.673.832h-1.966l-.467 1.382h-1.138l2.034-5.539h1.114l2.034 5.54h-1.131l-.48-1.383zM37.983 10.554h8.232v1.69h-3.023v8.472h-2.185v-8.472h-3.024zM47.373 20.715v-10.16h2.183v4.01h3.841v-4.01h2.21v10.16h-2.182v-4.462h-3.869v4.462zM57.384 10.554h6.812v1.69h-4.63v2.378h4.337v1.688h-4.337v2.718h4.785v1.688h-6.967zM75.037 10.554h2.46l1.773 7.643h.028l1.635-7.643h2.083l-2.59 10.162h-2.42l-1.83-7.741h-.029l-1.97 7.74h-2.478l-2.476-10.161h2.251l1.563 7.643h.028zM86.076 15.636c0 1.743.408 3.715 2.563 3.715 2.153 0 2.561-1.972 2.561-3.715 0-1.747-.408-3.718-2.56-3.718-2.156 0-2.564 1.971-2.564 3.718m-2.319 0c0-2.998 1.517-5.294 4.882-5.294 3.362 0 4.882 2.296 4.882 5.294 0 2.998-1.52 5.29-4.882 5.29-3.365 0-4.882-2.292-4.882-5.29M97.145 14.932h1.828c.957-.017 1.519-.492 1.519-1.395 0-.899-.562-1.279-1.52-1.294h-1.827v2.689zm0 5.784H94.96V10.554h4.32c1.746.014 3.533.576 3.533 2.647 0 1.321-.857 2.195-2.11 2.462v.029c1.673.181 1.673 1.209 1.857 2.617.1.648.185 1.844.59 2.407h-2.405c-.183-.9-.283-1.815-.38-2.731-.057-.563-.2-1.337-.913-1.365h-2.308v4.096zM104.48 20.715v-10.16h2.181v8.472h4.406v1.688zM114.43 19.027h1.129c2.59.027 2.97-1.774 2.97-3.39 0-1.62-.38-3.42-2.97-3.394h-1.128v6.784zm-2.18-8.474h3.464c3.165-.026 5.137 1.548 5.137 5.083 0 3.532-1.972 5.107-5.137 5.08h-3.463V10.552zM130.258 14.636c.915 0 1.42-.38 1.42-1.196 0-.817-.505-1.197-1.42-1.197h-1.705v2.393h1.705zm0 4.391c1.026 0 1.728-.184 1.728-1.35 0-1.17-.702-1.353-1.728-1.353h-1.705v2.703h1.705zm-3.885 1.688V10.553h3.814c1.814-.11 3.674.65 3.674 2.633 0 1.111-.776 1.886-1.79 2.222v.03c1.284.268 2.238 1.155 2.238 2.646 0 2.013-2.533 2.744-4.094 2.631h-3.842zM141.31 16.874l-1.393-4.334h-.028l-1.49 4.334h2.912zm-6.318 3.84l3.672-10.16h2.589l3.532 10.16h-2.194l-.731-2.152h-4.026l-.76 2.153h-2.082zM151.982 20.715l-4.01-8.445-.028.03v8.415h-2.04v-10.16h3.234l3.871 7.993.03-.028v-7.966h2.04v10.161zM159.052 14.946h.028l3.377-4.393h2.548l-3.73 4.546 4.053 5.616h-2.715l-3.533-5.179h-.028v5.18h-2.182V10.552h2.182zM79.207 30.179a.307.307 0 0 1-.306-.306v-6.17c0-.168.138-.304.306-.304.17 0 .307.136.307.304v6.17a.307.307 0 0 1-.307.306" mask="url(#f)"/>
        </g>
    </g>
</svg>
