<svg xmlns="http://www.w3.org/2000/svg" xmlns:xlink="http://www.w3.org/1999/xlink" width="166" height="26" viewBox="0 0 166 26">
    <defs>
        <path id="a" d="M0 .623h11.1V24.11H0z"/>
        <path id="c" d="M.102.255h20.785V26H.102z"/>
    </defs>
    <g fill="none" fill-rule="evenodd">
        <g transform="translate(0 .745)">
            <mask id="b" fill="#fff">
                <use xlink:href="#a"/>
            </mask>
            <path fill="#656B6F" d="M11.1 17.473c0 4.863-2.17 6.637-5.84 6.637H0V.623h5.29c4.068 0 5.138 2.447 5.138 6.453 0 2.874-1.04 4.434-2.905 4.526 2.019 0 3.578 2.048 3.578 5.871zM4.068 13.07v8.287h1.07c1.255 0 1.59-.763 1.59-4.342 0-2.599-.305-3.945-1.65-3.945h-1.01zm0-9.695v6.76h1.04c1.1 0 1.315-.979 1.315-2.997 0-2.754-.275-3.763-1.62-3.763h-.735z" mask="url(#b)"/>
        </g>
        <path fill="#656B6F" d="M34.398 12.806c2.627.793 2.935 3.894 2.935 6.74 0 2.208.075 4.162.367 5.31h-4.282c-.121-.858-.304-1.369-.304-3.485v-3.015c0-1.869-.634-3.27-1.973-3.623h-.29v10.122H26.63V1.368h6.268c2.936 0 4.925 1.713 4.925 5.963 0 3.701-1.605 5.29-3.425 5.475M30.85 4.273v6.882h1.283c1.102 0 1.44-.704 1.44-2.906 0-3.425-.644-3.976-1.928-3.976h-.794M45.01 12.042c.184 3.149.216 4.067.216 6.819v5.994h-3.884V1.369h3.852s1.836 6.88 2.233 8.349c.398 1.498.704 2.722.888 3.73-.123-2.293-.154-5.137-.154-7.492V1.369h3.762v23.486h-3.455s-2.11-7.247-2.54-8.684c-.336-1.101-.611-2.386-.917-4.13M59.812 21.34h5.107v3.515h-9.236V1.37h8.594v3.516h-4.465v6.36h3.945v3.275h-3.945zM71.09 19.44c0 2.63.552 3.03 1.5 3.03.734 0 1.303-.43 1.303-3.03 0-2.33-1.556-3.998-3.316-6.115-1.59-1.913-3.374-4.535-3.374-6.756 0-3.504 1.595-5.568 4.928-5.568 3.272 0 4.985 1.804 4.985 5.26a5.98 5.98 0 0 1-.305 1.898H73.32c.062-.367.095-.949.095-1.653 0-2.233-.244-2.905-1.223-2.905-.917 0-1.07.886-1.07 2.568 0 2.12 1.698 3.804 3.055 5.545 1.994 2.564 3.603 4.604 3.603 6.994 0 3.821-1.611 6.636-5.22 6.636-3.211 0-5.315-1.752-5.315-5.819 0-.947.033-1.724.278-2.55l3.758-.02c-.123.917-.191 1.475-.191 2.484M106.678 12.042c.185 3.149.214 4.067.214 6.819v5.994h-3.883V1.369h3.854s1.834 6.88 2.23 8.349c.399 1.498.704 2.722.889 3.73-.123-2.293-.154-5.137-.154-7.492V1.369h3.762v23.486h-3.456s-2.11-7.247-2.54-8.684c-.334-1.101-.61-2.386-.916-4.13M127.778 13.142c0 10.122-1.65 12.202-5.504 12.202-3.578 0-5.505-1.559-5.505-12.202C116.77 2.836 118.267 1 122.274 1c4.006 0 5.504 1.836 5.504 12.142m-4.343 0c0-3.7 0-5.963-.152-7.646-.123-1.71-.398-2.048-1.009-2.048-.673 0-.947.337-1.1 2.048-.124 1.652-.093 3.977-.093 7.646 0 4.282-.03 5.934.092 7.585.154 1.803.4 1.988 1.101 1.988.643 0 .857-.154 1.01-1.988.122-1.682.151-3.303.151-7.585M142.054 18.218c0 4.863-2.171 6.637-5.841 6.637h-5.26V1.368h5.29c4.069 0 5.139 2.447 5.139 6.453 0 2.874-1.04 4.434-2.906 4.526 2.018 0 3.578 2.048 3.578 5.871zm-7.033-4.403v8.287h1.07c1.255 0 1.59-.763 1.59-4.342 0-2.599-.306-3.945-1.651-3.945h-1.01zm0-9.695v6.76h1.04c1.1 0 1.314-.979 1.314-2.997 0-2.754-.274-3.763-1.621-3.763h-.733zM149.328 21.34h4.985v3.515h-9.266V1.37h4.281zM160.719 21.34h5.108v3.515h-9.236V1.37h8.594v3.516h-4.466v6.36h3.945v3.275h-3.945zM12.677 24.875L16.1 1.22h4.035l4.034 23.655h-4.371l-.427-3.789h-2.63l-.427 3.79h-3.637zm4.33-6.39h2.14s-.324-2.724-.507-4.497c-.121-1.1-.553-4.53-.675-6.792-.061 2.324-.431 5.721-.521 6.792a347.707 347.707 0 0 1-.436 4.496z"/>
        <g transform="translate(80 -.255)">
            <mask id="d" fill="#fff">
                <use xlink:href="#c"/>
            </mask>
            <path fill="#656B6F" d="M18.023 12.843c-1.625 0-2.845 1.096-3.575 2.6-.732 1.665-1.543 3.573-2.072 4.63-1.813-3.09-3.176-5.554-4.027-7.76 1.409-.788 3.854-1.986 5.248-3.258 1.396-1.273 2.07-2.465 2.314-3.846.446-2.64-1.056-4.954-4.386-4.954-2.803 0-6.133 2.192-6.782 5.847-.325 1.868.093 4.268.773 6.243-2.518 1.706-4.713 3.585-5.28 6.55C-.58 23.767 2.468 26 5.92 26c2.355 0 4.153-1.05 5.575-2.674C12.579 24.568 13.962 26 15.666 26c1.381 0 2.843-.893 3.98-2.354l-.489-.69c-1.055 1.015-1.866 1.42-2.476 1.42-1.096 0-2.233-.975-3.208-2.518-.122-.242-.284-.486-.405-.73.649-1.26 1.138-2.64 1.704-3.858 1.057-2.356 1.707-3.127 2.681-3.127 1.625 0 .326 2.721 2.072 2.721.812 0 1.216-.69 1.34-1.34.163-.975-.528-2.68-2.842-2.68M7.505 5.451c.282-1.665 1.705-3.45 3.897-3.45 1.708 0 2.843 1.298 2.477 3.288-.12.771-.335 1.453-1.102 2.416-.768.961-3.531 2.672-4.856 3.374-.597-1.94-.753-3.723-.417-5.628m-.568 18.965c-3.25 0-4.468-2.72-4.102-4.873.446-2.558 1.63-4.163 3.212-5.584 1.14 2.754 2.613 5.67 4.715 8.601-1.095 1.3-2.201 1.856-3.825 1.856" mask="url(#d)"/>
        </g>
        <path fill="#656B6F" d="M86.748 4.352s-2.23 3.394.885 10.274c2.555 5.642 5.614 8.828 5.614 8.828s-3.1-4.249-5.193-9.287c-2.549-6.14-1.306-9.815-1.306-9.815"/>
    </g>
</svg>
