<svg xmlns="http://www.w3.org/2000/svg" xmlns:xlink="http://www.w3.org/1999/xlink" width="166" height="38" viewBox="0 0 166 38">
    <defs>
        <path id="a" d="M0 1.05h21.352v29.393H0z"/>
        <path id="c" d="M0 38.769h165.428V1.115H0z"/>
    </defs>
    <g fill="none" fill-rule="evenodd" transform="translate(0 -1)">
        <g transform="translate(0 .883)">
            <mask id="b" fill="#fff">
                <use xlink:href="#a"/>
            </mask>
            <path fill="#656B6F" d="M0 29.926V1.051h5.534v10.648c1.657-2.163 4.008-3.202 6.493-3.202 5.358 0 9.325 4.154 9.325 10.95 0 7.014-4.009 10.996-9.325 10.996-2.525 0-4.836-1.124-6.493-3.201v2.684H0zm10.327-4.373c3.181 0 5.317-2.47 5.317-6.106 0-3.592-2.136-6.06-5.317-6.06-1.829 0-3.832 1.04-4.793 2.423v7.405c.96 1.341 2.964 2.338 4.793 2.338z" mask="url(#b)"/>
        </g>
        <mask id="d" fill="#fff">
            <use xlink:href="#c"/>
        </mask>
        <path fill="#656B6F" d="M23.688 30.81h5.531V1.935h-5.531zM46.413 30.81v-2.644c-1.439 1.56-3.965 3.16-7.407 3.16-4.619 0-6.798-2.511-6.798-6.578V9.9h5.534v12.681c0 2.9 1.523 3.854 3.875 3.854 2.138 0 3.835-1.168 4.796-2.383V9.901h5.533v20.908h-5.533zM54.197 20.33c0-6.059 4.535-10.95 10.893-10.95 6.318 0 10.546 4.676 10.546 11.473v1.298h-15.64c.39 2.554 2.48 4.674 6.052 4.674 1.788 0 4.225-.733 5.58-2.036l2.483 3.64c-2.092 1.9-5.406 2.897-8.671 2.897-6.408 0-11.243-4.285-11.243-10.995m10.893-6.449c-3.44 0-4.924 2.383-5.143 4.457H70.32c-.175-1.99-1.568-4.457-5.23-4.457M83.407 28.125v10.643H77.87V9.9h5.536v2.641c1.612-2.034 3.921-3.158 6.489-3.158 5.403 0 9.327 3.98 9.327 10.948 0 6.971-3.924 10.997-9.327 10.997-2.483 0-4.746-1.04-6.49-3.202m10.11-7.795c0-3.592-2.18-6.06-5.36-6.06-1.787 0-3.791.997-4.75 2.383v7.358c.914 1.344 2.963 2.424 4.75 2.424 3.18 0 5.36-2.468 5.36-6.105M101.496 30.81V9.9h5.533v2.813c1.526-1.82 4.097-3.333 6.711-3.333v5.366c-.391-.085-.873-.128-1.523-.128-1.833 0-4.271 1.038-5.188 2.382v13.81h-5.533zM115.485 4.357c0-1.817 1.48-3.243 3.268-3.243 1.826 0 3.31 1.426 3.31 3.243 0 1.819-1.484 3.29-3.31 3.29-1.789 0-3.268-1.471-3.268-3.29zm.52 26.452h5.534V9.901h-5.535v20.908zM138.904 30.81V18.166c0-2.902-1.524-3.896-3.875-3.896-2.18 0-3.835 1.212-4.795 2.422V30.81H124.7V9.901h5.534v2.68c1.35-1.557 3.964-3.2 7.365-3.2 4.66 0 6.883 2.595 6.883 6.664v14.764h-5.578zM149.36 25.572V14.704h-3.485V9.901h3.484V4.188h5.536V9.9h4.27v4.803h-4.27v9.393c0 1.342.7 2.338 1.916 2.338.828 0 1.612-.305 1.92-.65l1.17 4.2c-.824.735-2.306 1.342-4.614 1.342-3.878 0-5.928-1.993-5.928-5.755M163.724 10.94h-.59v.786h.59c.183 0 .385-.167.385-.385a.404.404 0 0 0-.385-.402zm.35 1.877l-.553-.838h-.387v.838h-.281v-2.122h.871c.36 0 .675.253.675.646a.62.62 0 0 1-.544.628l.57.848h-.35zm-.512-2.663a1.6 1.6 0 0 0-1.613 1.597 1.612 1.612 0 0 0 3.225 0 1.6 1.6 0 0 0-1.612-1.597zm0 3.448a1.857 1.857 0 0 1-1.861-1.85c0-1.03.835-1.851 1.86-1.851 1.042 0 1.867.82 1.867 1.85 0 1.022-.825 1.851-1.866 1.851z" mask="url(#d)"/>
    </g>
</svg>
