<svg xmlns="http://www.w3.org/2000/svg" xmlns:xlink="http://www.w3.org/1999/xlink" width="166" height="86" viewBox="0 0 166 86">
    <defs>
        <path id="a" d="M1.194 1.007H4.56v3.382H1.194z"/>
    </defs>
    <g fill="none" fill-rule="evenodd">
        <path fill="#656B6F" d="M85.816 25.567a10.793 10.793 0 0 0-2.082.126c.185-1.489.797-3.316 2.966-3.24 2.401.084 2.739 2.361 2.747 3.904-1.012-.453-2.265-.742-3.63-.79M96.083 9.404c-.402-2.156-1.679-3.22-2.835-3.637-1.245-.452-3.774-.92-6.948-1.297-2.553-.301-5.557-.277-7.371-.222-.218-1.497-1.264-2.863-2.434-3.336-3.117-1.26-7.935-.956-9.17-.608-.983.277-2.07.842-2.676 1.712-.406.582-.67 1.327-.67 2.368 0 .589.015 1.977.031 3.21.015 1.235.031 2.342.031 2.35a1.998 1.998 0 0 1-1.992 1.999h-5.054c-1.079 0-1.902.182-2.532.469a3.52 3.52 0 0 0-1.415 1.132c-.675.91-.792 2.032-.789 3.178 0 0 .008.936.233 2.748.187 1.402 1.703 11.196 3.14 14.174.559 1.16.93 1.642 2.026 2.153 2.442 1.05 8.019 2.217 10.633 2.552 2.61.334 4.248 1.038 5.224-1.015.001-.007.195-.51.46-1.255.847-2.576.966-4.862.966-6.517 0-.168.245-.176.245 0 0 1.168-.221 5.302 2.889 6.41 1.229.438 3.776.829 6.367 1.132 2.34.272 4.037 1.196 4.037 7.224 0 3.669-.766 4.171-4.778 4.171-3.253 0-4.494.084-4.494-2.508 0-2.097 2.067-1.878 3.597-1.878.684 0 .19-.509.19-1.803 0-1.287.8-2.03.042-2.05-5.295-.146-8.407-.006-8.407 6.639 0 6.033 2.298 7.153 9.813 7.153 5.89 0 7.964-.194 10.396-7.769.483-1.495 1.647-6.057 2.35-13.72.447-4.845-.42-19.467-1.105-23.159M56.759 10.47h5.057a.527.527 0 0 0 .523-.526c0-.002-.061-4.35-.061-5.559v-.014c0-.993.207-1.859.57-2.584l.173-.326a.105.105 0 0 0-.06.031l-9.819 9.776a.114.114 0 0 0-.037.056l.52-.256c.856-.387 1.892-.598 3.134-.598"/>
        <g transform="translate(160.645 64.204)">
            <mask id="b" fill="#fff">
                <use xlink:href="#a"/>
            </mask>
            <path fill="#656B6F" d="M2.477 2.556H2.9c.308 0 .403-.106.403-.286 0-.179-.151-.245-.403-.245h-.422v.531zM2.16 1.73h.74c.474 0 .72.166.72.555 0 .353-.223.501-.495.55l.518.827h-.361l-.507-.812h-.298v.812H2.16V1.73zm.718 2.36c.75 0 1.367-.615 1.367-1.395 0-.778-.616-1.394-1.367-1.394-.754 0-1.37.616-1.37 1.394 0 .78.616 1.396 1.37 1.396zm0-3.083c.931 0 1.684.758 1.684 1.688 0 .935-.753 1.694-1.684 1.694-.932 0-1.684-.76-1.684-1.694 0-.93.752-1.688 1.684-1.688z" mask="url(#b)"/>
        </g>
        <path fill="#656B6F" d="M0 82.517h2.262l.11-14.511H0V65.22h15.004l.184 5.644h-2.959l-.256-2.858H6.316l-.039 5.678h5.734v2.786H6.242l-.036 6.047h5.695l.366-3.225h3.213l-.366 6.009H0zM39.062 68.005h-1.898l-7.12 17.296h-4.088l-7.157-17.296h-2.008V65.22h8.544v2.785h-2.008l4.929 13.633h.072l4.893-13.633h-2.41V65.22h8.25zM41.032 82.517h2.262l.11-14.511h-2.372V65.22h15.004l.184 5.644h-2.958l-.257-2.858h-5.658l-.036 5.678h5.732v2.786h-5.769l-.036 6.047h5.695l.366-3.225h3.212l-.365 6.009H41.032zM66.588 73.978h1.569c2.152 0 3.613-1.173 3.613-3.041 0-1.832-.912-2.932-2.739-2.932h-2.41l-.033 5.973zm-6.318 8.538h2.264l.11-14.511H60.27v-2.786h9.238c4.637 0 6.132 2.676 6.132 5.277 0 2.309-1.131 4.398-4.71 5.315v.072c1.863.512 2.338.99 4.2 4.214 1.241 2.09 1.679 2.42 2.371 2.42.293 0 .585-.075.84-.111V85.3h-2.045c-2.701 0-3.028-.329-5.146-4.543-1.898-3.737-2.337-3.994-3.798-3.994h-.802l-.037 5.753h2.373V85.3H60.27v-2.784zM96.704 68.005h-2.371V65.22h7.846v2.785h-2.264l-.108 17.296h-2.994L86.117 71.01h-.072l-.111 11.506h2.375v2.785h-7.85v-2.785h2.263l.11-14.51h-2.374V65.22h5.916L96.52 78.816h.075zM113.532 82.48c3.724 0 5.84-3.189 5.84-7.256 0-4.581-2.48-7.183-5.84-7.183-3.723 0-5.841 3.188-5.841 7.33 0 4.506 2.483 7.109 5.84 7.109m0-17.664c6.902 0 9.932 4.581 9.932 10.152 0 6.339-3.761 10.736-9.931 10.736-6.897 0-9.93-4.581-9.93-10.186 0-6.303 3.76-10.702 9.93-10.702M129.741 82.517h2.263l.108-14.511h-4.013l-.149 2.858h-3.028l.218-5.644h17.927l.218 5.644h-3.03l-.147-2.858h-4.016l-.11 14.51h2.374v2.785h-8.615zM145.512 82.517h2.262l.108-14.511h-2.37V65.22h15.004l.182 5.644h-2.957l-.256-2.858h-5.657l-.038 5.678h5.731v2.786h-5.768l-.036 6.047h5.694l.366-3.225h3.213l-.364 6.009h-15.114z"/>
    </g>
</svg>
