<svg xmlns="http://www.w3.org/2000/svg" xmlns:xlink="http://www.w3.org/1999/xlink" width="14" height="14"><defs><path id="a" d="M0 0h13.904v13.904H0z"/></defs><g fill="none" fill-rule="evenodd"><mask id="b" fill="#fff"><use xlink:href="#a"/></mask><path fill="#9D9EA0" d="M1.62 0a1.62 1.62 0 1 0 0 3.24 1.62 1.62 0 0 0 0-3.24zm12.208 7.481c-.214-1.757-1.015-2.849-3.387-2.849-1.39 0-2.329.512-2.721 1.254h-.043V4.632H5.092v9.273h2.705V9.306c0-1.212.238-2.38 1.723-2.38 1.492 0 1.603 1.382 1.603 2.465v4.512h2.781V8.812c0-.478-.026-.921-.076-1.331zM0 7.097v6.807h3.241V4.633H0v2.464z" mask="url(#b)"/></g></svg>