<svg xmlns="http://www.w3.org/2000/svg" width="19" height="13"><path fill="#9D9EA0" fill-rule="evenodd" d="M15.11 2.032s0-.145 0 0c-.748-.725-1.645-1.016-2.543-.87.898-.146 1.346-.436 1.496-.581 0-.145 0-.29-.15-.29-.448 0-.897.145-1.196.29.448-.29.598-.436.598-.581-.449 0-.898.29-1.496.726.15-.29.3-.436.15-.58-.3.144-.45.29-.599.58-.449.435-.748.726-.898 1.161-.598 1.017-1.047 1.888-1.346 2.904h-.15A3.498 3.498 0 0 0 7.63 3.629c-.599-.435-1.347-.725-2.244-1.161-.898-.436-1.795-.871-2.843-1.161 0 1.016.45 1.887 1.496 2.468-.299 0-.748 0-1.047.145 0 .87.748 1.597 2.095 1.887-.45 0-.898.145-1.347.436.449.87 1.197 1.161 2.394 1.161-.15.145-.449.29-.449.29-.15.146-.3.436-.15.726.3.436.599.58 1.347.58-1.047 1.017-2.394 1.598-3.89 1.453-.898 0-1.945-.436-2.992-1.307 1.047 1.452 2.543 2.613 4.339 3.34 2.094.58 4.189.725 6.133.144a10.697 10.697 0 0 0 5.087-3.339c.598-.87 1.047-1.742 1.197-2.613 1.047 0 1.795-.29 2.244-.871-.3.145-1.047.145-2.094-.145 1.047-.145 1.795-.436 1.944-1.016a3 3 0 0 1-2.244 0c-.15-1.017-.598-1.888-1.496-2.614z"/></svg>