<svg xmlns="http://www.w3.org/2000/svg" xmlns:xlink="http://www.w3.org/1999/xlink" width="76" height="14"><defs><path id="a" d="M.266.202h7.68v10.616H.266z"/><path id="c" d="M.317.094h7.606V8.6H.317z"/><path id="e" d="M0 .026h4.925v7.33H0z"/><path id="g" d="M.301.048h7.111V8H.302z"/></defs><g fill="none" fill-rule="evenodd"><g transform="translate(.32 3.088)"><mask id="b" fill="#fff"><use xlink:href="#a"/></mask><path fill="#929293" d="M6.404 10.818c.508-.02 1.028-.042 1.542-.157C6.461 5.785 5.42 3.086.851.201a8.758 8.758 0 0 0-.585 1.043c4.08 2.161 6.25 7.339 6.138 9.574" mask="url(#b)"/></g><path fill="#929293" d="M8.752 13.63a7.985 7.985 0 0 0 1.68-.729c-2.04-5.134-5.5-9.407-8.449-10.578a7.834 7.834 0 0 0-.47.524C5.18 4.82 7.607 8.58 8.751 13.63"/><path fill="#929293" d="M10.866 12.612c.461-.368.923-.733 1.29-1.228-3.203-5.373-5.17-7.852-9.052-9.965a6.233 6.233 0 0 0-.743.555c2.372 1.24 6.682 4.958 8.505 10.638m-5.41 1.147c.246.05.497.089.756.11-.468-4.19-3.34-7.3-5.855-8.933-.09.268-.172.536-.225.804 1.253 1.064 4.049 3.88 5.324 8.019"/><path fill="#929293" d="M12.409 11.067c.337-.497.642-.982.858-1.596-2.164-4.146-4.372-6.27-7.796-9.02a6.478 6.478 0 0 0-.94.262c1.766 1.256 6.82 6.274 7.878 10.354"/><g transform="translate(5.772 .225)"><mask id="d" fill="#fff"><use xlink:href="#c"/></mask><path fill="#929293" d="M7.7 8.6c.15-.718.292-1.474.187-2.25C6.457 4.343 2.883.858 1.279.096a7.37 7.37 0 0 0-.962.036C2.357 1.413 5.466 4.712 7.7 8.6" mask="url(#d)"/></g><path fill="#929293" d="M13.475 5.42c-.146-.528-.301-.98-.569-1.47C11.89 1.962 10.128 1.014 8.982.651a8.295 8.295 0 0 0-1.16-.27c1.916 1.03 4.457 3.61 5.653 5.037"/><g transform="translate(0 6.27)"><mask id="f" fill="#fff"><use xlink:href="#e"/></mask><path fill="#929293" d="M4.925 7.357c-.426-.12-.866-.263-1.325-.544C2.563 4.16 1.262 2.223.002 1.05-.004.712.002.367.04.026c1.384 1.541 3.425 3.503 4.885 7.33" mask="url(#f)"/></g><path fill="#929293" d="M1.85 11.758c.355.36.656.607.976.842C2.319 11.385.787 9.285.083 8.12c.064.549.21 1.016.41 1.533.169.477.778 1.535 1.356 2.105M24.917 4.95l-1.66.515c-.224-.61-.697-.916-1.42-.916-.771 0-1.157.232-1.157.695 0 .185.072.342.217.47.144.128.47.239.978.333.85.159 1.471.32 1.865.481.395.162.727.423.997.783.27.36.406.762.406 1.206 0 .697-.29 1.3-.87 1.809-.58.508-1.438.762-2.577.762-.853 0-1.58-.18-2.18-.54-.6-.36-.995-.893-1.186-1.602l1.807-.378c.203.72.767 1.08 1.694 1.08.447 0 .78-.08.998-.241.22-.16.33-.351.33-.573 0-.227-.1-.402-.3-.526-.198-.125-.582-.242-1.151-.35-1.06-.204-1.817-.482-2.268-.835-.45-.352-.676-.867-.676-1.545 0-.686.268-1.264.807-1.735.54-.471 1.27-.707 2.193-.707 1.634 0 2.685.605 3.153 1.814m4.573-.339c-1.024 0-1.536.833-1.536 2.498 0 1.67.512 2.504 1.535 2.504.991 0 1.487-.832 1.487-2.498 0-1.669-.496-2.504-1.487-2.504m-.054 6.477c-1.123 0-1.991-.39-2.605-1.17-.614-.78-.92-1.724-.92-2.831 0-1.127.31-2.067.932-2.82.622-.754 1.509-1.13 2.66-1.13 1.162 0 2.04.402 2.631 1.206.592.805.888 1.725.888 2.76 0 1.12-.305 2.064-.915 2.832-.61.769-1.5 1.153-2.671 1.153M39.862 4.78H35.96v1.73h3.083v1.442H35.96v3.018h-2.027V3.255h5.928zm6.918-1.525v1.526h-2.063v6.189h-1.978V4.78h-2.075V3.256zm7.005 0v1.526H51.72v6.189h-1.977V4.78h-2.076V3.256zm6.675 1.47h-3.968v1.582h3.12v1.452h-3.12v1.685h3.968v1.526h-5.952V3.255h5.952zm7.53 1.401l-2.044.119c-.029-1.09-.487-1.633-1.377-1.633-1.02 0-1.529.838-1.529 2.515 0 .968.139 1.624.416 1.969.278.345.665.517 1.162.517.808 0 1.3-.486 1.48-1.458l1.893.107c-.122.924-.494 1.625-1.115 2.106-.62.48-1.38.72-2.28.72-1.102 0-1.999-.352-2.688-1.057-.69-.704-1.035-1.678-1.035-2.921 0-1.165.334-2.118 1-2.86.669-.743 1.58-1.114 2.736-1.114 2.002 0 3.13.997 3.382 2.99"/><g transform="translate(68.304 3.088)"><mask id="h" fill="#fff"><use xlink:href="#g"/></mask><path fill="#929293" d="M3.88 1.523c-1.022 0-1.534.833-1.534 2.498 0 1.67.512 2.504 1.535 2.504.991 0 1.487-.833 1.487-2.498 0-1.67-.496-2.504-1.487-2.504M3.826 8c-1.122 0-1.99-.39-2.604-1.17-.614-.78-.92-1.724-.92-2.831 0-1.127.31-2.067.932-2.82C1.856.424 2.742.047 3.894.047c1.162 0 2.04.402 2.631 1.207.592.804.888 1.724.888 2.76 0 1.12-.306 2.063-.915 2.832C5.888 7.616 4.998 8 3.826 8" mask="url(#h)"/></g></g></svg>