<svg xmlns="http://www.w3.org/2000/svg" xmlns:xlink="http://www.w3.org/1999/xlink" width="217" height="40"><defs><path id="a" d="M.76.577h21.929v30.332H.759z"/><path id="c" d="M.905.267h21.717v24.304H.905z"/><path id="e" d="M0 .073h14.061V21.02H0z"/><path id="g" d="M.86.137h20.304v22.72H.86z"/></defs><g fill="none" fill-rule="evenodd"><g transform="translate(.916 8.824)"><mask id="b" fill="#fff"><use xlink:href="#a"/></mask><path fill="#FFF" d="M18.284 30.91c1.451-.06 2.937-.12 4.405-.449C18.447 16.528 15.473 8.817 2.429.577c-.645.957-1.183 1.986-1.67 2.979 11.649 6.173 17.848 20.967 17.525 27.353" mask="url(#b)"/></g><path fill="#FFF" d="M24.988 38.944a22.79 22.79 0 0 0 4.795-2.083C23.96 22.192 14.081 9.984 5.663 6.638c-.49.5-.949 1.01-1.345 1.496 10.475 5.639 17.404 16.379 20.67 30.81"/><path fill="#FFF" d="M31.027 36.035c1.315-1.052 2.634-2.095 3.683-3.508C25.564 17.175 19.946 10.09 8.862 4.055c-.734.478-1.481 1.012-2.121 1.584 6.772 3.545 19.08 14.168 24.286 30.396m-15.449 3.276c.703.14 1.42.255 2.157.315-1.334-11.972-9.534-20.86-16.717-25.524-.258.766-.489 1.532-.64 2.297 3.577 3.04 11.559 11.086 15.2 22.912"/><path fill="#FFF" d="M35.43 31.62c.963-1.42 1.834-2.805 2.45-4.559-6.179-11.846-12.482-17.917-22.258-25.77-.907.197-1.812.413-2.684.746C17.981 5.626 32.411 19.963 35.43 31.62"/><g transform="translate(16.481 .642)"><mask id="d" fill="#fff"><use xlink:href="#c"/></mask><path fill="#FFF" d="M21.986 24.57c.426-2.05.832-4.21.533-6.425C18.435 12.406 8.232 2.45 3.653.272 2.76.257 1.844.267.905.375c5.824 3.662 14.702 13.089 21.08 24.196" mask="url(#d)"/></g><path fill="#FFF" d="M38.476 15.484c-.418-1.508-.862-2.8-1.625-4.2C33.947 5.61 28.92 2.9 25.646 1.862c-1.112-.33-2.101-.587-3.312-.772 5.47 2.942 12.726 10.313 16.142 14.394"/><g transform="translate(0 17.915)"><mask id="f" fill="#fff"><use xlink:href="#e"/></mask><path fill="#FFF" d="M14.061 21.02c-1.214-.344-2.471-.75-3.783-1.553C7.318 11.882 3.605 6.35.005 3c-.017-.966 0-1.95.108-2.926 3.954 4.404 9.78 10.01 13.948 20.947" mask="url(#f)"/></g><path fill="#FFF" d="M5.28 33.595a22.4 22.4 0 0 0 2.788 2.404c-1.445-3.47-5.82-9.47-7.832-12.798.183 1.567.601 2.903 1.172 4.38.481 1.362 2.222 4.385 3.872 6.014m65.864-19.451l-4.741 1.47c-.638-1.744-1.99-2.616-4.052-2.616-2.203 0-3.304.662-3.304 1.986 0 .527.207.975.619 1.34.41.366 1.343.685 2.793.954 2.425.453 4.2.912 5.325 1.374 1.127.463 2.076 1.208 2.846 2.236a5.604 5.604 0 0 1 1.16 3.447c0 1.99-.829 3.714-2.483 5.167-1.655 1.452-4.107 2.18-7.358 2.18-2.437 0-4.513-.515-6.225-1.543-1.712-1.029-2.841-2.554-3.387-4.578l5.159-1.082c.58 2.057 2.192 3.084 4.836 3.084 1.276 0 2.228-.228 2.852-.686.627-.457.941-1.004.941-1.638 0-.647-.285-1.148-.854-1.502-.569-.356-1.666-.69-3.29-1.002-3.028-.582-5.186-1.376-6.474-2.383-1.287-1.006-1.932-2.478-1.932-4.416 0-1.96.767-3.611 2.306-4.956 1.539-1.346 3.625-2.02 6.26-2.02 4.667 0 7.667 1.729 9.003 5.184m13.056-.968c-2.923 0-4.383 2.379-4.383 7.137 0 4.769 1.46 7.153 4.382 7.153 2.83 0 4.245-2.379 4.245-7.137 0-4.769-1.415-7.153-4.245-7.153m-.156 18.505c-3.204 0-5.684-1.115-7.436-3.343-1.754-2.228-2.63-4.925-2.63-8.09 0-3.219.888-5.904 2.664-8.057 1.777-2.154 4.308-3.23 7.594-3.23 3.32 0 5.824 1.15 7.514 3.447 1.69 2.3 2.534 4.928 2.534 7.888 0 3.199-.871 5.895-2.612 8.09-1.741 2.197-4.285 3.295-7.628 3.295m29.772-18.021h-11.138v4.94h8.802v4.119h-8.802v8.623H96.89V9.3h16.924zM133.57 9.3v4.36h-5.891v17.682h-5.647V13.66h-5.926V9.3zm20 0v4.36h-5.892v17.682h-5.646V13.66h-5.927V9.3zm19.059 4.199H161.3v4.52h8.906v4.15H161.3v4.813h11.329v4.36h-16.994V9.3h16.994zm21.503 4.004l-5.84.34c-.082-3.112-1.39-4.667-3.93-4.667-2.91 0-4.366 2.395-4.366 7.186 0 2.766.396 4.641 1.187 5.627.793.985 1.899 1.477 3.318 1.477 2.307 0 3.714-1.388 4.228-4.166l5.403.307c-.35 2.638-1.41 4.642-3.182 6.015-1.772 1.373-3.941 2.06-6.51 2.06-3.148 0-5.708-1.007-7.678-3.02-1.969-2.013-2.953-4.796-2.953-8.349 0-3.326.952-6.05 2.857-8.17 1.907-2.122 4.509-3.182 7.81-3.182 5.717 0 8.935 2.848 9.656 8.542"/><g transform="translate(195.025 8.824)"><mask id="h" fill="#fff"><use xlink:href="#g"/></mask><path fill="#FFF" d="M11.08 4.352c-2.92 0-4.38 2.378-4.38 7.137 0 4.769 1.46 7.154 4.382 7.154 2.83 0 4.245-2.38 4.245-7.138 0-4.769-1.414-7.153-4.245-7.153m-.156 18.505c-3.205 0-5.684-1.114-7.437-3.343C1.735 17.286.86 14.59.86 11.424c0-3.219.888-5.904 2.664-8.057C5.3 1.213 7.83.137 11.117.137c3.32 0 5.825 1.15 7.514 3.447 1.69 2.3 2.534 4.929 2.534 7.889 0 3.198-.871 5.894-2.613 8.09-1.74 2.196-4.284 3.294-7.627 3.294" mask="url(#h)"/></g></g></svg>